if (_typeface_js && _typeface_js.loadFace) _typeface_js.loadFace({"glyphs":{"S":{"x_min":-318.765625,"x_max":1451.84375,"ha":1307,"o":"m -305 -20 q -215 -30 -265 -30 q -43 10 -128 -30 q -137 216 -125 97 q -140 260 -140 238 q -94 433 -140 353 q 78 550 -30 550 q 191 500 151 546 q 231 383 231 452 q 138 132 226 247 q -4 2 75 50 l 2 -4 q 7 -7 3 -5 l 10 -9 q 312 -103 137 -103 q 522 -71 423 -103 q 678 5 615 -40 q 868 249 809 101 q 924 542 911 362 q 930 713 928 617 q 945 919 934 828 q 727 984 813 919 q 724 1002 716 992 q 743 1003 734 1011 q 947 944 820 944 q 1003 1171 964 1077 q 1301 1431 1113 1431 q 1436 1357 1404 1428 q 1451 1281 1451 1320 q 1399 1136 1451 1212 q 1198 971 1325 1028 q 970 919 1090 923 q 955 697 963 855 q 929 370 947 460 q 892 240 914 299 q 694 -16 833 84 q 531 -97 625 -68 q 313 -129 428 -129 q -2 -25 132 -129 l -23 -7 q -215 -55 -106 -55 q -309 -45 -268 -55 q -318 -34 -319 -44 q -305 -20 -319 -17 m -112 208 q -22 19 -101 96 q 71 92 33 53 q 206 385 206 230 q 171 485 204 445 q 79 525 137 525 q -72 423 -20 514 q -114 253 -114 341 q -112 208 -114 230 m 972 944 q 1187 994 1082 948 q 1376 1149 1310 1057 q 1417 1246 1408 1195 q 1422 1286 1422 1267 q 1412 1340 1422 1314 q 1301 1405 1388 1405 q 1024 1161 1119 1397 q 972 944 989 1070 "},"/":{"x_min":231.171875,"x_max":1387.5,"ha":1344,"o":"m 234 -293 l 1363 1471 q 1381 1473 1369 1480 q 1384 1457 1391 1468 l 255 -307 q 244 -312 251 -312 q 237 -311 238 -312 q 234 -293 226 -302 "},"y":{"x_min":-324,"x_max":1110.671875,"ha":1094,"o":"m -320 -708 q -273 -616 -309 -659 q -22 -383 -185 -509 q 282 -180 108 -283 q 445 -88 340 -145 l 591 174 q 258 5 403 40 q 154 -8 201 -9 q 24 28 78 -8 q -35 122 -27 61 q -38 149 -38 135 q 101 454 -38 270 q 262 617 165 540 q 473 739 359 697 q 480 740 477 740 q 490 731 486 740 q 484 714 494 721 q 122 439 281 638 q 82 385 116 434 q 15 260 52 345 q -12 148 -12 198 q -10 124 -12 136 q 38 49 -2 74 q 153 16 86 16 q 251 30 198 16 q 622 230 413 71 l 746 455 l 795 545 l 840 626 q 862 666 843 630 q 909 716 876 697 q 943 727 927 727 q 967 720 956 727 q 987 703 981 712 q 994 664 994 692 q 994 653 994 659 q 966 566 991 613 q 861 426 941 513 q 692 262 782 338 q 670 244 687 257 q 645 222 659 236 l 487 -65 q 637 18 633 18 l 657 29 q 690 48 661 31 q 713 61 693 50 q 744 78 733 71 l 815 118 q 899 165 887 159 q 992 227 984 222 q 1090 302 1037 259 q 1106 300 1101 308 q 1110 290 1110 295 q 1105 282 1110 285 q 1006 206 1062 246 q 914 141 957 169 l 833 87 q 763 45 795 61 l 710 16 q 687 4 697 9 q 674 -2 677 -1 l 661 -9 l 457 -119 l 459 -115 q 148 -559 333 -348 q -228 -825 -83 -824 q -230 -825 -229 -825 q -308 -790 -286 -824 q -324 -737 -324 -767 q -320 -708 -324 -723 m -298 -744 q -284 -782 -298 -766 q -231 -800 -267 -800 q -64 -728 -165 -800 q 125 -549 23 -663 q 416 -141 298 -351 q 296 -206 352 -174 q -256 -633 -102 -443 q -285 -683 -275 -656 q -298 -744 -298 -715 m 678 282 q 844 444 771 363 q 944 576 917 524 q 973 664 973 633 q 956 697 973 688 q 941 701 948 701 q 884 655 914 701 q 878 646 880 650 q 871 634 876 641 q 860 614 867 626 l 817 534 l 769 447 l 678 282 "},"g":{"x_min":-399,"x_max":1074.125,"ha":1058,"o":"m -390 -782 q -399 -745 -399 -766 q -350 -628 -399 -697 q -178 -450 -293 -549 q 425 -39 87 -219 l 479 31 q 573 153 516 89 q 438 57 483 84 q 191 -28 298 -28 q 41 21 106 -28 q -30 154 -22 70 q -32 176 -32 165 q 163 483 -32 317 q 687 721 444 721 q 779 712 737 721 q 862 674 820 704 q 915 599 901 647 q 918 569 918 584 q 817 371 918 484 q 1025 499 946 460 q 1042 491 1038 503 q 1037 474 1046 481 q 1012 463 1033 474 l 941 423 q 846 361 907 403 q 499 18 634 214 q 475 -15 477 -11 q 608 42 574 31 q 817 143 706 77 q 987 252 922 206 q 1052 300 1045 293 q 1070 299 1064 308 q 1074 290 1074 294 q 1068 281 1074 286 q 927 181 1013 238 q 617 20 755 69 q 443 -56 547 -5 q 167 -424 319 -236 q -131 -747 -18 -651 q -160 -771 -139 -755 q -226 -809 -188 -792 q -306 -831 -270 -831 q -390 -782 -365 -831 m -368 -769 q -314 -805 -348 -804 q -306 -805 -310 -805 q -241 -789 -275 -805 q -179 -753 -208 -772 q -147 -728 -158 -739 q 101 -466 -42 -636 q 393 -82 255 -280 q -163 -468 85 -252 q -329 -641 -284 -574 q -373 -744 -373 -706 q -368 -769 -373 -759 m -5 157 q 56 40 2 84 q 191 -3 109 0 q 308 17 248 -3 q 438 86 365 37 q 548 166 505 131 q 663 259 588 196 q 893 569 893 450 q 890 593 893 582 q 819 672 878 649 q 687 695 759 695 q 180 465 454 695 q 24 286 70 372 q -6 179 -6 229 q -5 157 -6 168 "},"–":{"x_min":65.109375,"x_max":630.75,"ha":694,"o":"m 65 421 l 65 446 l 630 446 l 630 421 l 65 421 "},"e":{"x_min":-31,"x_max":1002.609375,"ha":973,"o":"m -29 154 q -31 188 -31 171 q 0 337 -31 265 q 91 482 37 427 q 51 505 51 504 q 48 522 42 511 q 65 525 56 533 q 112 500 82 515 q 145 533 122 512 l 177 563 q 562 769 360 741 q 603 772 583 772 q 762 712 698 772 q 807 619 807 671 q 780 536 807 580 q 637 419 734 458 q 461 384 547 383 q 442 384 452 384 q 158 450 297 389 l 114 469 q 50 379 83 441 q 3 257 22 323 q -5 189 -5 223 q 0 131 -5 160 q 71 39 14 73 q 181 8 118 12 q 217 8 198 7 q 317 16 266 8 q 436 40 381 25 q 525 68 499 57 q 755 181 645 117 q 981 348 856 240 q 999 346 992 353 q 1002 338 1002 342 q 997 328 1002 333 q 767 160 862 215 q 533 46 654 95 q 382 1 455 17 q 209 -13 310 -13 q 57 18 117 -13 q -29 154 -20 63 m 133 489 l 171 470 q 445 409 305 415 q 463 409 454 408 q 632 446 548 409 q 762 549 725 487 q 782 618 781 586 q 773 657 782 639 q 694 728 752 704 q 605 746 651 746 q 567 744 586 746 q 387 689 474 732 q 189 548 298 645 l 173 530 l 151 508 q 144 501 148 505 q 138 494 141 497 q 133 489 134 491 "},"J":{"x_min":-499,"x_max":1831.09375,"ha":843,"o":"m -499 -71 q -449 36 -499 -5 q -330 77 -401 76 q -142 26 -249 77 q 126 -69 39 -54 q 259 64 188 -15 q 381 215 325 140 l 534 422 q 659 594 623 547 q 981 1005 858 869 q 1137 1161 1047 1078 q 854 1207 940 1207 q 763 1201 803 1207 q 701 1188 729 1195 q 679 1182 681 1184 q 662 1191 667 1180 q 670 1208 661 1202 q 854 1232 741 1232 q 1161 1180 950 1230 q 1354 1311 1259 1264 q 1641 1385 1499 1384 q 1803 1328 1760 1378 q 1831 1251 1830 1292 q 1829 1236 1831 1243 q 1789 1151 1823 1188 q 1566 1075 1713 1075 q 1401 1094 1492 1075 q 1169 1154 1330 1111 l 1119 1108 q 959 938 1043 1036 q 823 774 872 837 l 679 579 l 584 449 l 471 296 l 378 171 q 157 -75 256 15 q 252 -80 203 -80 q 408 -62 337 -80 q 423 -72 421 -60 q 413 -88 426 -85 q 255 -106 340 -106 q 137 -97 185 -106 q 70 -149 94 -132 q -248 -260 -93 -260 q -419 -209 -343 -260 q -499 -71 -497 -158 m -473 -71 q -397 -192 -469 -149 q -246 -234 -321 -234 q 53 -127 -92 -232 q 104 -90 87 -103 q -149 4 0 -65 q -331 52 -254 52 q -432 17 -391 49 q -473 -71 -473 -15 m 1192 1173 q 1405 1118 1365 1126 q 1502 1105 1451 1110 q 1596 1100 1555 1100 q 1696 1116 1652 1100 q 1770 1167 1737 1132 q 1804 1239 1799 1200 q 1806 1254 1806 1247 q 1787 1309 1806 1285 q 1643 1359 1742 1359 q 1367 1290 1509 1359 q 1192 1173 1286 1249 "},"‐":{"x_min":65.109375,"x_max":930.515625,"ha":993,"o":"m 78 421 q 65 433 65 421 q 78 446 65 446 l 918 446 q 930 433 930 446 q 918 421 930 421 l 78 421 "}," ":{"x_min":0,"x_max":0,"ha":766},"ﬄ":{"x_min":-669,"x_max":2376.09375,"ha":2155,"o":"m 1361 198 q 1705 822 1439 420 l 1822 986 l 1909 1108 q 1940 1151 1936 1146 q 1958 1174 1940 1154 l 2011 1231 q 2082 1297 2046 1268 q 2208 1382 2154 1360 q 2278 1399 2246 1399 q 2332 1383 2308 1399 q 2375 1308 2371 1358 q 2376 1297 2376 1302 q 2254 1033 2376 1203 q 1992 746 2140 877 q 1454 346 1819 594 q 1384 188 1416 271 q 1381 175 1383 184 q 1378 162 1379 166 q 1375 136 1376 153 q 1376 111 1375 126 q 1397 53 1379 74 q 1499 13 1434 13 q 1593 29 1541 13 q 1886 145 1760 79 q 2152 321 2013 213 q 2171 320 2163 327 q 2169 301 2179 310 q 1893 119 2024 190 q 1598 1 1764 49 q 1496 -12 1555 -12 q 1378 34 1416 -12 q 1347 121 1347 69 q 1361 198 1347 156 m 1477 392 q 1975 765 1834 640 q 2235 1048 2126 899 q 2351 1297 2350 1206 q 2350 1306 2351 1301 q 2318 1362 2347 1344 q 2277 1374 2300 1374 q 2099 1279 2209 1374 q 2055 1239 2071 1254 l 2018 1201 l 1988 1169 q 1967 1146 1981 1162 l 1960 1136 l 1928 1091 l 1841 969 l 1727 808 q 1477 392 1569 567 m 45 -766 q 39 -732 39 -752 q 79 -584 39 -680 q 138 -466 114 -502 q 700 304 241 -262 l 903 555 q 1579 1362 1364 1124 q 1665 1406 1622 1406 q 1683 1405 1674 1406 q 1740 1361 1723 1398 q 1752 1304 1752 1335 q 1751 1287 1752 1296 q 1740 1219 1747 1248 q 1730 1186 1733 1191 q 1503 837 1672 1016 q 1017 444 1322 645 q 724 287 919 379 l 605 141 q 704 77 650 97 q 853 52 772 52 q 1213 147 1008 52 q 1452 301 1340 207 q 1470 300 1463 311 q 1468 282 1477 289 q 1223 123 1354 186 q 850 26 1010 26 q 693 55 764 26 q 610 106 642 74 q 613 32 613 69 q 534 -333 613 -149 q 298 -693 444 -551 q 103 -799 187 -799 q 45 -766 58 -798 m 68 -756 q 89 -771 75 -767 q 108 -773 99 -773 q 279 -674 176 -773 q 514 -317 421 -540 q 588 27 587 -142 q 583 113 588 71 q 161 -479 246 -316 q 102 -595 123 -548 q 64 -728 64 -683 q 68 -756 64 -745 m 760 332 q 1002 465 917 410 q 1706 1194 1585 850 q 1716 1222 1710 1198 q 1725 1284 1720 1240 q 1727 1302 1727 1293 q 1717 1352 1727 1328 q 1677 1381 1708 1377 q 1669 1381 1673 1382 q 1599 1344 1634 1381 q 1580 1321 1594 1337 q 1539 1274 1566 1306 q 1488 1215 1513 1243 l 1237 918 l 927 537 l 760 332 m -662 -766 q -669 -732 -669 -752 q -628 -584 -669 -680 q -569 -466 -593 -502 q -7 304 -466 -262 l 195 555 q 871 1362 656 1124 q 957 1406 914 1406 q 975 1405 966 1406 q 1032 1361 1015 1398 q 1044 1304 1044 1335 q 1043 1287 1044 1296 q 1032 1219 1039 1248 q 1022 1186 1025 1191 q 795 837 964 1016 q 309 444 614 645 q 16 287 211 379 l -102 141 q -3 77 -57 97 q 145 52 64 52 q 505 147 300 52 q 744 301 632 207 q 762 300 755 311 q 760 282 769 289 q 515 123 646 186 q 142 26 302 26 q -14 55 56 26 q -97 106 -65 74 q -94 32 -94 69 q -173 -333 -94 -149 q -409 -693 -263 -551 q -604 -799 -520 -799 q -662 -766 -649 -798 m -639 -756 q -618 -771 -632 -767 q -599 -773 -608 -773 q -428 -674 -531 -773 q -193 -317 -286 -540 q -120 27 -120 -142 q -124 113 -120 71 q -546 -479 -461 -316 q -605 -595 -584 -548 q -643 -728 -643 -683 q -639 -756 -643 -745 m 52 332 q 294 465 209 410 q 998 1194 877 850 q 1008 1222 1002 1198 q 1017 1284 1012 1240 q 1019 1302 1019 1293 q 1009 1352 1019 1328 q 969 1381 1000 1377 q 961 1381 965 1382 q 891 1344 926 1381 q 872 1321 886 1337 q 831 1274 858 1306 q 780 1215 805 1243 l 529 918 l 219 537 l 52 332 "},"^":{"x_min":88.703125,"x_max":1040.390625,"ha":1120,"o":"m 88 784 q 99 798 87 793 q 133 804 106 798 q 231 828 189 816 q 373 870 311 849 q 975 1195 699 984 q 990 1196 982 1202 q 994 1181 999 1191 q 984 1155 994 1180 q 965 1090 975 1127 q 947 1005 951 1034 q 942 916 940 954 q 961 842 943 874 q 1029 798 983 805 q 1040 783 1040 796 q 1028 773 1039 773 l 1024 773 q 940 830 967 781 q 956 1151 883 930 q 380 847 681 948 q 237 802 324 826 q 137 779 187 789 q 103 773 109 773 q 88 784 92 772 "},"D":{"x_min":-212,"x_max":1620.09375,"ha":1398,"o":"m -212 39 q -202 50 -212 48 q -186 41 -190 52 q -145 -30 -176 -4 q -48 -63 -104 -63 q -18 -61 -34 -63 q 128 8 60 -50 q 257 169 192 67 q 387 387 308 251 q 542 645 475 541 l 650 826 q 512 883 566 838 q 440 994 454 930 q 437 1024 437 1008 q 474 1134 437 1076 q 620 1246 527 1214 q 754 1268 685 1268 l 804 1265 q 988 1218 896 1255 q 1098 1284 1048 1261 q 1354 1344 1219 1344 q 1618 1213 1561 1344 q 1620 1207 1620 1210 q 1612 1196 1620 1201 q 1595 1203 1600 1192 q 1354 1318 1542 1318 q 1109 1262 1228 1318 q 1016 1206 1046 1230 q 1230 1030 1152 1145 q 1317 712 1317 897 q 1269 424 1317 569 q 961 17 1173 127 q 753 -35 859 -35 q 593 1 665 -35 q 485 114 520 39 q 465 183 472 138 q 464 205 464 194 q 476 273 464 235 q 539 350 493 322 q 641 377 584 377 q 814 338 718 377 q 821 321 823 331 q 804 314 814 310 q 641 351 713 351 q 555 330 593 351 q 493 235 505 301 q 489 196 489 214 q 507 125 489 156 q 605 24 540 58 q 753 -10 672 -10 q 951 39 855 -10 q 1245 432 1158 147 q 1292 712 1292 580 q 1209 1015 1292 889 q 992 1189 1134 1129 q 903 1111 959 1164 q 692 847 797 1005 q 942 925 832 847 q 1038 1010 998 962 q 1056 1011 1044 1019 q 1058 994 1066 1003 q 1048 982 1058 993 q 1012 949 1040 971 q 962 908 972 915 q 712 822 843 822 q 677 823 696 822 l 562 633 l 432 417 q 339 263 350 280 q 144 -8 228 65 q -16 -86 71 -74 q -50 -89 -34 -89 q -160 -50 -116 -89 q -195 -8 -179 -33 q -212 39 -212 15 m 477 965 q 665 851 524 876 q 792 1023 728 947 q 965 1200 881 1132 q 811 1240 890 1228 q 758 1243 785 1243 q 657 1231 709 1243 q 523 1157 573 1212 q 462 1026 462 1089 q 477 965 462 995 "},"":{"x_min":0,"x_max":705.359375,"ha":705,"o":"m 0 705 l 705 705 l 705 0 l 0 0 l 0 705 "}," ":{"x_min":0,"x_max":0,"ha":191},"w":{"x_min":-65,"x_max":1521.671875,"ha":1318,"o":"m -63 116 q 90 505 -50 259 l 155 607 q 203 688 191 671 l 222 714 q 238 716 227 723 q 241 699 248 711 l 224 672 q 175 594 221 668 q 111 493 135 533 q -39 114 -25 258 q -39 100 -39 106 q 2 29 -39 46 q 51 20 24 20 q 193 59 109 20 q 270 106 223 75 q 346 167 305 129 q 412 232 383 201 q 480 311 457 279 l 538 390 q 595 476 552 408 q 626 526 614 506 q 645 556 638 546 l 694 638 l 737 711 l 758 697 q 597 377 648 505 q 529 119 529 212 q 548 41 529 70 q 637 3 576 3 q 674 6 655 3 q 943 180 808 24 q 1111 438 1036 286 q 1068 539 1073 477 q 1067 566 1067 552 q 1086 662 1067 617 q 1165 731 1116 731 q 1176 730 1170 731 q 1205 710 1195 726 q 1213 673 1213 696 q 1195 584 1213 638 q 1141 445 1174 515 q 1228 421 1174 420 q 1360 446 1283 421 q 1430 476 1395 459 q 1483 503 1465 493 q 1502 514 1502 512 q 1520 510 1511 518 q 1521 503 1521 506 q 1515 491 1521 497 q 1368 424 1406 436 q 1240 396 1296 400 q 1230 396 1235 396 q 1131 422 1168 396 q 961 164 1051 267 q 828 43 894 87 q 679 -17 753 -7 q 637 -22 655 -22 q 526 28 560 -22 q 504 119 503 62 q 573 387 504 220 l 584 412 q 400 177 486 266 q 204 37 315 89 q 50 -4 115 -4 q -6 5 19 -4 q -65 99 -64 31 q -63 116 -64 108 m 1094 542 q 1122 463 1098 494 q 1132 487 1126 476 q 1139 503 1136 497 q 1143 512 1141 510 q 1188 673 1188 622 q 1183 697 1188 688 q 1166 705 1177 705 q 1110 653 1133 705 q 1092 569 1092 614 q 1094 542 1092 556 "},"$":{"x_min":36.875,"x_max":1323.859375,"ha":1316,"o":"m 58 27 q 95 284 1 160 q 143 335 105 297 q 181 369 166 358 q 200 381 198 380 q 217 376 211 387 q 213 358 225 365 l 208 354 l 191 342 q 169 324 179 333 l 143 297 q 116 266 133 288 q 83 36 33 154 q 177 -62 111 -24 q 336 -105 245 -101 q 553 -57 448 -109 q 721 116 658 -4 q 781 266 758 190 q 802 419 802 338 q 797 550 802 494 q 776 692 792 596 q 768 743 773 701 q 760 798 763 785 q 752 849 758 808 q 747 906 747 887 q 745 959 747 933 q 747 1018 742 999 q 750 1047 748 1026 q 753 1072 752 1067 q 766 1133 757 1104 l 787 1192 q 872 1324 817 1270 q 983 1396 926 1378 q 1100 1412 1038 1414 q 1207 1385 1155 1410 q 1315 1267 1290 1345 q 1293 1084 1340 1192 q 1220 1000 1269 1037 q 1143 955 1178 971 q 1101 940 1123 947 q 1086 948 1091 934 q 1093 965 1082 960 q 1127 977 1098 965 q 1199 1022 1155 989 q 1264 1094 1242 1055 q 1287 1257 1308 1192 q 1192 1361 1266 1322 q 1100 1385 1151 1384 q 994 1370 1050 1386 q 889 1303 942 1354 q 809 1182 840 1256 q 772 1016 778 1105 q 774 877 768 920 q 797 724 778 843 q 799 708 798 718 q 801 697 801 699 q 827 415 829 523 q 743 105 821 250 q 573 -71 684 -10 q 334 -131 464 -131 q 168 -87 244 -128 q 58 27 88 -44 m 145 -241 l 1275 1522 q 1293 1526 1283 1532 q 1298 1519 1298 1523 q 1296 1508 1298 1514 l 166 -255 q 148 -258 160 -265 q 145 -241 139 -252 "},"\\":{"x_min":116.5,"x_max":467.109375,"ha":671,"o":"m 117 1410 q 126 1424 114 1423 q 141 1415 139 1427 l 466 -303 q 457 -315 468 -310 l 454 -315 q 441 -305 446 -315 l 117 1410 "},"’":{"x_min":70.84375,"x_max":286.78125,"ha":325,"o":"m 72 796 l 262 1178 q 279 1183 268 1190 q 284 1166 290 1179 l 94 784 q 83 778 91 778 q 78 779 79 778 q 72 796 67 785 "},"-":{"x_min":65.109375,"x_max":930.515625,"ha":993,"o":"m 78 421 q 65 433 65 421 q 78 446 65 446 l 918 446 q 930 433 930 446 q 918 421 930 421 l 78 421 "},"Q":{"x_min":37,"x_max":1434.125,"ha":1393,"o":"m 45 53 q 216 144 83 144 q 461 91 342 141 l 467 88 q 483 82 472 87 q 507 70 497 75 q 537 54 519 65 q 553 44 541 51 q 572 33 565 37 l 612 6 q 657 -28 630 -6 q 999 199 835 48 q 1240 501 1153 345 q 1339 817 1333 666 q 1321 964 1339 897 q 1222 1119 1294 1064 q 975 1198 1119 1198 q 656 1110 815 1193 q 397 900 498 1027 q 267 591 286 764 q 267 564 267 577 q 369 324 267 420 q 643 218 480 217 q 731 226 685 218 q 993 362 898 256 q 1078 576 1078 455 q 1059 681 1078 627 q 974 792 1031 753 q 856 825 921 824 q 849 825 852 825 q 697 776 771 825 q 681 778 687 768 q 683 797 672 788 q 856 850 764 850 q 987 814 928 850 q 1082 691 1051 769 q 1103 576 1103 635 q 1011 345 1103 447 q 736 201 913 234 q 643 193 688 193 q 351 306 469 193 q 242 563 242 418 q 242 594 242 578 q 377 917 261 776 q 653 1135 489 1050 q 975 1223 820 1223 q 1237 1139 1121 1223 q 1344 972 1313 1081 q 1364 816 1364 902 q 1261 490 1355 661 q 1016 181 1167 321 q 679 -46 856 32 q 850 -226 770 -124 q 1052 -389 938 -340 q 1214 -424 1132 -424 q 1387 -353 1336 -422 q 1409 -287 1406 -324 q 1409 -280 1409 -283 q 1393 -220 1409 -247 q 1282 -170 1361 -170 q 1204 -179 1244 -171 q 1189 -171 1195 -184 q 1197 -155 1187 -160 l 1203 -154 q 1206 -153 1204 -154 q 1210 -152 1208 -153 q 1215 -151 1212 -151 q 1223 -149 1218 -150 q 1232 -148 1229 -148 q 1245 -146 1236 -147 q 1257 -146 1253 -146 q 1282 -144 1265 -144 q 1416 -207 1382 -147 q 1434 -287 1434 -237 q 1409 -369 1434 -336 q 1214 -450 1349 -450 q 1043 -413 1130 -450 l 1044 -413 q 829 -241 919 -356 q 654 -57 752 -142 q 462 -118 547 -102 q 310 -132 398 -132 q 280 -132 296 -132 q 48 -35 96 -121 q 37 12 37 -11 q 45 53 37 32 m 69 -22 q 128 -72 88 -53 q 199 -96 174 -94 q 279 -105 230 -100 q 318 -106 298 -106 q 632 -39 466 -106 q 452 67 538 35 q 216 119 340 119 q 69 45 105 116 q 62 10 62 27 q 69 -22 62 -6 "},"M":{"x_min":-770,"x_max":1830.84375,"ha":1653,"o":"m -770 116 q -727 266 -770 200 q -710 269 -719 277 q -705 253 -702 264 q -744 117 -744 197 q -701 -8 -744 37 q -554 -72 -654 -65 l -539 -72 q -378 -34 -458 -72 q -213 74 -294 4 q 149 491 -68 197 q 467 902 327 731 q 781 1208 648 1118 q 975 1281 888 1282 q 1036 1220 1036 1278 q 1010 1128 1036 1186 q 876 785 930 943 q 799 466 824 632 q 1100 828 937 658 q 1415 1110 1261 994 q 1649 1249 1549 1209 q 1757 1273 1712 1273 q 1816 1248 1803 1270 q 1826 1214 1826 1233 q 1794 1126 1826 1178 q 1544 665 1662 933 q 1364 13 1376 294 l 1364 12 q 1364 -5 1364 3 q 1375 -91 1364 -55 q 1430 -190 1391 -149 q 1595 -251 1498 -251 q 1751 -191 1682 -251 q 1807 -125 1792 -155 q 1822 -120 1813 -115 q 1830 -130 1830 -124 q 1827 -138 1830 -133 l 1824 -142 q 1818 -153 1822 -147 q 1813 -161 1817 -156 q 1807 -169 1808 -166 q 1802 -174 1804 -172 q 1798 -179 1800 -176 q 1792 -187 1796 -183 q 1771 -206 1780 -199 q 1595 -277 1693 -276 q 1414 -208 1486 -277 q 1364 -136 1382 -179 q 1339 15 1339 -72 q 1521 675 1351 298 q 1773 1139 1644 952 l 1790 1173 q 1801 1208 1799 1192 q 1794 1237 1803 1228 q 1759 1248 1783 1248 q 1660 1226 1713 1248 q 1537 1163 1610 1206 q 1244 933 1401 1080 q 791 412 993 702 q 779 204 779 306 q 781 132 779 168 q 771 38 781 76 q 723 -49 759 -20 q 656 -73 695 -73 q 601 -52 624 -73 q 568 30 568 -20 q 572 66 568 47 q 651 238 580 127 q 766 422 678 287 q 844 769 789 601 q 988 1138 897 931 q 1011 1220 1011 1188 q 975 1256 1008 1256 q 796 1187 897 1256 q 592 1007 705 1127 q 170 476 449 853 q -110 137 7 256 q -368 -58 -249 -1 q -539 -98 -456 -98 l -555 -98 q -721 -26 -666 -91 q -770 116 -770 30 m 595 64 q 593 35 593 48 q 615 -32 593 -10 q 656 -48 634 -48 q 708 -30 688 -48 q 737 15 727 -13 q 756 132 756 57 q 755 182 755 157 q 761 368 755 272 q 671 226 709 291 q 595 64 604 120 "},"C":{"x_min":57,"x_max":1286.09375,"ha":1023,"o":"m 57 264 q 259 739 57 473 q 616 1088 408 933 q 555 1241 564 1160 q 565 1255 553 1253 q 580 1243 577 1258 q 637 1104 596 1159 q 701 1148 662 1123 q 1011 1294 870 1257 q 1130 1311 1081 1311 q 1231 1289 1186 1311 q 1277 1228 1264 1266 q 1286 1180 1286 1205 q 1247 1064 1286 1115 q 1176 993 1222 1027 q 953 924 1084 926 q 870 930 908 924 q 701 1001 778 948 q 630 1071 655 1033 l 555 1015 q 174 570 307 809 q 82 265 82 402 q 196 24 88 95 q 358 -17 260 -16 q 572 42 483 -13 q 856 329 726 129 q 873 334 861 339 q 876 316 884 326 q 584 19 744 113 q 357 -42 471 -42 q 226 -19 288 -42 q 99 92 144 13 q 57 264 57 168 m 649 1085 q 715 1022 677 1051 q 873 956 784 969 q 953 949 912 949 q 1159 1011 1068 949 q 1169 1019 1163 1014 q 1177 1025 1176 1025 l 1190 1039 l 1203 1051 q 1213 1062 1209 1058 q 1217 1067 1216 1065 q 1220 1071 1218 1069 l 1224 1075 l 1227 1077 q 1261 1180 1260 1123 q 1245 1239 1261 1215 q 1193 1277 1228 1264 q 1129 1285 1168 1285 q 1014 1270 1076 1285 q 649 1085 843 1230 "},"!":{"x_min":107,"x_max":881.484375,"ha":862,"o":"m 107 64 q 130 119 107 96 q 184 143 153 143 q 239 119 216 143 q 263 64 263 96 q 239 10 263 33 q 184 -13 216 -13 q 130 10 153 -13 q 107 64 107 33 m 266 259 q 632 902 385 549 l 745 1058 l 828 1170 q 858 1208 850 1199 q 876 1209 866 1216 q 877 1191 885 1204 q 847 1154 869 1183 l 764 1041 l 653 889 q 290 250 400 520 q 277 241 284 242 l 276 241 q 275 242 275 241 q 273 242 275 242 q 266 259 262 247 "},"ﬁ":{"x_min":-665.015625,"x_max":1316.109375,"ha":1306,"o":"m -658 -766 q -624 -586 -681 -719 q -564 -468 -588 -504 q -4 302 -459 -266 l 198 553 q 872 1361 659 1122 q 975 1404 923 1414 q 1032 1361 1015 1397 q 1043 1287 1047 1329 q 1032 1219 1039 1248 q 1022 1186 1025 1191 q 795 837 964 1016 q 311 442 615 644 q 19 285 213 377 l -99 139 q -1 75 -55 95 q 507 146 195 0 q 747 300 635 206 q 765 299 758 310 q 763 281 772 288 q 517 123 648 186 q -12 55 190 -24 q -94 105 -62 74 q -169 -333 -75 -112 q -405 -693 -259 -552 q -600 -799 -516 -799 q -658 -766 -645 -798 m -635 -757 q -614 -772 -629 -767 q -425 -675 -543 -789 q -190 -319 -283 -541 q -121 111 -98 -100 q -543 -480 -458 -318 q -602 -596 -581 -549 q -635 -757 -655 -715 m 55 330 q 297 463 211 408 q 999 1191 878 848 q 1008 1219 1003 1196 q 1018 1282 1012 1238 q 1009 1349 1022 1317 q 970 1378 1000 1374 q 892 1341 931 1382 q 873 1319 887 1335 q 833 1271 859 1303 q 782 1212 807 1240 l 531 915 l 222 534 l 55 330 m 625 68 q 626 152 615 102 q 669 258 637 203 q 726 353 725 352 q 791 446 754 396 q 805 466 795 452 q 902 598 833 506 q 983 699 955 667 q 999 718 991 709 q 1010 732 1007 727 l 1013 737 q 1032 739 1019 746 q 1033 720 1041 733 l 1030 716 q 1019 702 1026 711 q 1003 683 1011 692 q 922 581 997 678 q 825 452 857 498 q 678 220 711 287 q 648 74 636 130 q 751 30 660 30 q 1012 112 864 30 q 1296 310 1158 192 q 1313 309 1306 320 q 1312 291 1319 300 q 751 5 973 5 q 625 68 638 5 m 1080 915 q 1099 962 1080 944 q 1148 981 1122 981 q 1195 962 1176 981 q 1214 915 1214 943 q 1195 868 1214 890 q 1148 847 1176 847 q 1099 868 1120 847 q 1080 915 1080 887 "},"{":{"x_min":85,"x_max":1052.09375,"ha":610,"o":"m 85 -102 q 111 -5 85 -44 q 186 75 136 32 q 384 266 335 194 q 435 441 432 337 q 432 469 435 459 q 421 495 429 479 q 405 518 417 504 l 389 537 q 370 554 386 540 q 358 562 366 556 q 350 568 351 567 q 342 574 347 571 q 335 578 337 578 q 324 584 327 583 l 320 587 q 312 600 312 588 q 321 611 314 611 q 445 657 374 611 q 613 937 574 742 q 785 1283 656 1162 q 1039 1383 896 1382 q 1052 1370 1052 1383 q 1039 1358 1052 1358 q 783 1244 890 1358 q 638 931 678 1133 q 562 740 616 820 q 458 636 517 676 q 358 592 419 611 q 460 441 455 537 q 449 347 461 395 q 417 269 438 306 q 360 197 402 241 q 296 135 319 152 l 220 69 q 209 61 213 65 q 203 55 204 57 q 110 -99 110 -19 q 183 -220 110 -187 q 195 -235 199 -227 q 178 -242 191 -246 q 108 -185 131 -225 q 85 -102 85 -145 "},"X":{"x_min":-397,"x_max":1865.09375,"ha":1350,"o":"m -395 187 q -317 361 -384 295 q 13 482 -202 482 q 43 482 28 482 q 54 467 55 482 q 41 457 53 457 q -299 344 -194 457 q -354 254 -331 312 q -371 158 -371 209 q -371 137 -371 148 q -326 33 -367 76 q -22 -70 -226 -71 q 409 79 187 -70 q 602 242 531 163 q 850 600 748 414 q 964 962 958 796 q 965 976 965 969 q 924 1117 965 1049 q 746 1220 867 1203 q 646 1228 694 1228 q 405 1152 501 1228 q 298 983 322 1086 q 288 904 288 940 q 313 801 288 846 q 421 715 349 739 q 491 703 456 703 q 563 717 528 703 q 682 861 659 747 q 696 870 683 873 q 706 857 709 869 q 606 705 689 754 q 498 678 556 678 q 435 686 468 678 q 293 785 342 709 q 263 906 263 838 q 272 988 263 944 q 389 1172 297 1099 q 647 1254 491 1254 q 750 1245 696 1254 q 945 1130 886 1223 q 990 961 987 1065 q 916 675 988 846 q 1095 884 997 785 q 1442 1130 1258 1047 q 1640 1174 1538 1173 q 1801 1127 1738 1174 q 1865 987 1865 1080 l 1862 951 q 1846 942 1860 939 q 1836 955 1837 943 q 1840 987 1839 980 q 1784 1108 1840 1066 q 1640 1148 1730 1148 q 1452 1106 1546 1148 q 1113 868 1275 1030 q 967 702 1032 786 q 712 208 774 457 q 703 135 703 174 q 706 80 703 109 q 756 -41 715 4 q 931 -117 824 -117 q 1061 -84 998 -117 q 1153 8 1123 -51 q 1175 90 1171 41 q 1176 103 1176 97 q 1158 179 1176 139 q 1097 236 1140 222 q 1047 246 1073 245 q 1010 240 1029 246 q 931 190 962 228 q 913 187 923 180 q 911 206 906 194 q 998 263 940 245 q 1047 271 1022 271 l 1107 260 q 1178 196 1154 243 q 1201 104 1201 151 q 1200 97 1201 100 q 1178 -1 1197 42 q 1077 -104 1146 -66 q 931 -143 1006 -143 q 737 -58 814 -143 q 678 124 678 8 q 686 213 678 165 q 741 374 703 280 q 623 226 698 314 l 614 218 l 589 193 q 550 156 578 182 q 498 112 528 137 q 435 65 477 95 q -20 -96 199 -96 q -340 12 -238 -96 q -397 161 -397 76 q -395 187 -397 173 "},"#":{"x_min":43.84375,"x_max":1309.28125,"ha":1335,"o":"m 46 -83 l 872 1188 q 890 1191 877 1198 q 893 1175 900 1186 l 67 -97 q 57 -103 65 -102 q 50 -100 51 -103 q 46 -83 40 -93 m 147 325 q 134 337 134 325 q 147 350 134 350 l 987 350 q 1000 337 999 350 q 987 325 1000 325 l 147 325 m 387 772 q 375 785 375 772 q 387 797 375 797 l 1227 797 q 1240 785 1239 797 q 1227 772 1240 772 l 387 772 m 459 -83 l 1285 1188 q 1302 1191 1291 1198 q 1306 1175 1313 1185 l 480 -97 q 469 -103 475 -102 q 462 -99 466 -103 q 459 -83 451 -92 "},")":{"x_min":-228.5,"x_max":715.734375,"ha":822,"o":"m -226 -247 q -222 -230 -231 -239 q -65 -116 -172 -200 q 271 200 119 29 q 682 1306 749 744 q 693 1321 682 1316 q 707 1309 707 1321 q 611 674 745 999 q 290 181 500 416 q -49 -138 138 9 l -133 -197 l -189 -238 q -209 -252 -208 -251 q -216 -254 -212 -254 q -226 -247 -222 -254 "},"}":{"x_min":-79,"x_max":888.09375,"ha":956,"o":"m -66 -203 q -79 -190 -79 -203 q -66 -177 -79 -177 q 189 -63 82 -177 q 335 248 295 48 q 411 439 357 359 q 515 544 455 504 q 615 587 558 572 q 514 739 518 642 q 526 833 512 780 q 555 910 538 880 q 612 983 571 938 q 676 1045 654 1027 l 753 1110 q 762 1119 758 1114 q 769 1124 766 1123 q 863 1280 863 1200 q 788 1400 863 1367 q 778 1416 773 1407 q 794 1423 782 1427 q 864 1366 841 1406 q 888 1282 888 1326 q 863 1186 888 1223 q 786 1105 837 1147 q 588 914 637 985 q 539 739 540 843 q 543 711 539 725 q 551 684 549 688 q 566 663 553 680 q 576 652 572 658 q 585 642 580 646 q 603 625 593 633 q 613 617 608 622 q 622 612 618 613 l 638 602 q 649 595 646 597 l 653 592 q 662 580 662 590 q 651 569 659 569 q 527 523 598 569 q 359 242 398 438 q 187 -103 316 17 q -66 -203 76 -203 "},"a":{"x_min":-45.234375,"x_max":1253.171875,"ha":1230,"o":"m -44 158 q -45 180 -45 169 q 151 487 -45 319 q 426 663 289 604 q 680 723 558 723 q 786 709 743 723 q 815 699 791 708 q 864 665 835 693 q 901 602 893 638 q 905 573 905 588 q 781 350 905 481 q 785 353 783 351 q 790 356 788 355 l 792 358 q 910 438 848 398 q 1006 499 971 478 q 1042 520 1041 520 q 1059 516 1052 529 q 1054 499 1067 506 l 1041 491 l 1002 468 l 948 433 l 880 388 q 808 339 829 355 q 641 198 701 258 q 573 79 569 122 q 615 33 575 48 q 695 18 656 17 q 952 103 809 18 q 1232 314 1099 190 q 1249 312 1243 323 q 1253 302 1253 307 q 1249 294 1253 298 q 697 -6 914 -6 q 597 12 644 -6 q 548 84 548 32 q 598 187 548 127 q 425 61 505 110 q 179 -24 286 -24 q 29 25 89 -24 q -44 158 -32 75 m -19 161 q 44 43 -11 86 q 179 0 100 0 q 294 21 233 0 q 423 90 352 42 q 534 169 503 144 q 649 262 566 193 q 880 572 880 451 q 877 597 880 585 q 845 648 871 625 q 801 678 823 669 q 779 686 785 685 q 680 698 732 698 q 430 637 565 698 q 168 467 289 573 q 11 290 60 377 q -19 179 -19 232 q -19 161 -19 170 "},"—":{"x_min":65.109375,"x_max":1325.25,"ha":1389,"o":"m 65 421 l 65 446 l 1325 446 l 1325 421 l 65 421 "},"=":{"x_min":51.546875,"x_max":1087.546875,"ha":1155,"o":"m 63 325 q 51 337 51 325 q 63 350 51 350 l 904 350 q 916 337 916 350 q 904 325 916 325 l 63 325 m 234 615 q 222 627 222 615 q 234 640 222 640 l 1074 640 q 1087 627 1087 640 q 1074 615 1087 615 l 234 615 "},"N":{"x_min":-497,"x_max":2325.09375,"ha":1278,"o":"m -497 123 q -455 277 -497 211 q -438 279 -450 286 q -434 262 -429 274 q -471 132 -471 207 q -471 123 -471 127 q -450 22 -471 69 q -283 -63 -397 -63 q 47 80 -129 -63 q 421 499 207 212 q 740 912 621 768 q 1038 1211 918 1123 q 1205 1282 1134 1282 q 1264 1235 1264 1282 q 1247 1180 1264 1213 q 1192 1071 1245 1172 q 1098 885 1125 939 l 1006 703 q 825 90 836 329 q 825 79 825 84 q 846 -3 825 17 q 867 -10 854 -10 q 907 7 885 -10 q 943 52 925 25 q 1033 205 975 94 q 1318 678 1197 508 q 1479 881 1387 778 q 1618 1028 1565 978 q 1732 1123 1677 1082 q 1808 1178 1791 1169 l 1843 1197 l 1899 1229 q 1895 1232 1897 1230 q 1891 1238 1894 1235 q 1887 1242 1889 1239 l 1884 1245 q 1831 1347 1847 1298 q 1839 1361 1830 1357 q 1844 1362 1842 1362 q 1854 1353 1851 1362 q 1903 1256 1873 1299 q 1916 1238 1913 1242 q 1930 1246 1918 1240 q 1951 1258 1943 1252 q 2177 1322 2080 1319 q 2263 1306 2225 1322 q 2318 1248 2304 1287 q 2325 1211 2325 1229 q 2315 1170 2325 1190 q 2178 1100 2279 1100 q 1914 1209 2011 1104 l 1815 1153 q 1704 1069 1767 1124 q 1338 664 1519 917 q 1198 450 1266 562 q 1075 232 1141 356 q 995 88 1004 100 q 924 -10 955 22 q 876 -35 900 -31 q 868 -36 872 -36 q 828 -20 847 -36 q 800 90 800 11 q 983 714 808 326 q 1076 897 1027 808 l 1169 1080 l 1225 1191 q 1239 1232 1238 1216 q 1205 1256 1239 1256 q 1052 1191 1146 1256 q 862 1014 965 1126 q 441 486 723 864 q 63 61 225 193 q -283 -89 -116 -89 q -450 -22 -393 -86 q -497 123 -497 33 m 1936 1223 q 2179 1126 2038 1126 q 2286 1168 2259 1126 q 2300 1211 2300 1188 q 2297 1232 2300 1221 q 2253 1283 2289 1266 q 2177 1297 2219 1296 q 1973 1241 2090 1294 l 1936 1223 "},"2":{"x_min":60.9375,"x_max":1319.921875,"ha":1118,"o":"m 64 -16 q 84 50 51 5 q 229 207 142 128 q 430 369 316 289 q 631 502 573 465 l 841 641 q 1105 816 1029 760 q 1259 995 1211 896 q 1284 1182 1308 1095 q 1087 1327 1247 1308 q 819 1273 952 1340 q 617 1079 686 1207 q 606 986 589 1027 q 687 934 623 944 q 852 1033 784 919 q 881 1089 873 1068 q 898 1134 893 1118 l 904 1152 q 920 1162 906 1168 q 929 1146 933 1161 q 923 1126 929 1142 q 917 1107 923 1124 q 905 1076 911 1089 q 874 1018 895 1051 q 682 907 794 887 q 598 948 629 915 q 572 1017 569 978 q 591 1093 573 1051 q 802 1301 669 1234 q 1089 1354 935 1369 q 1230 1304 1170 1346 q 1310 1190 1291 1261 q 1279 975 1339 1083 q 1121 795 1221 870 q 856 619 1060 748 l 646 480 l 448 349 q 247 187 338 271 q 107 33 165 113 q 87 -2 84 3 q 137 0 94 -13 q 180 13 173 12 q 228 29 219 25 q 496 84 416 90 q 741 11 600 79 q 792 -11 787 -9 q 834 -24 809 -17 q 874 -28 859 -31 q 909 -14 886 -27 q 944 18 927 -5 q 963 20 955 28 q 966 0 974 13 q 852 -53 917 -53 q 728 -13 807 -51 q 494 57 593 50 q 236 4 417 63 q 144 -25 155 -22 q 64 -16 78 -41 "},"Z":{"x_min":-118,"x_max":1756.84375,"ha":1615,"o":"m -96 102 q 80 173 -50 173 q 213 158 139 173 q 398 113 295 141 q 478 191 438 150 q 814 554 640 348 l 859 608 l 625 630 q 614 644 612 632 q 628 655 614 656 l 876 632 l 969 758 q 1081 909 1040 857 q 1192 1036 1141 986 q 663 1169 891 1081 q 643 1177 660 1170 q 612 1189 625 1184 l 559 1209 q 508 1223 541 1216 q 452 1230 474 1229 q 324 1153 366 1230 q 302 1059 302 1115 q 324 944 302 1002 q 348 889 336 910 q 344 872 356 878 q 326 876 333 864 q 301 931 314 899 q 277 1060 276 998 q 301 1165 277 1117 q 452 1255 351 1255 q 510 1249 476 1255 q 561 1236 534 1245 q 620 1213 586 1227 l 672 1193 q 1214 1058 911 1103 q 1427 1203 1320 1160 q 1625 1250 1544 1250 q 1697 1237 1665 1250 q 1747 1188 1732 1225 q 1756 1151 1756 1169 q 1747 1113 1757 1132 q 1708 1066 1733 1084 q 1463 1011 1635 1011 q 1222 1032 1343 1011 q 1101 894 1159 967 q 991 745 1080 868 l 906 629 l 1195 602 q 1209 588 1208 602 q 1195 578 1206 578 l 1194 577 l 888 606 q 834 538 856 561 q 545 222 665 343 q 426 105 483 157 q 644 31 487 88 q 872 -45 788 -21 q 1247 -106 1103 -106 q 1480 -12 1432 -106 q 1500 75 1500 23 q 1495 135 1500 102 q 1504 148 1492 147 q 1516 139 1515 151 q 1525 72 1524 104 q 1501 -24 1525 19 q 1247 -132 1445 -132 q 866 -67 1089 -132 q 639 8 782 -44 q 405 86 502 58 q 222 -54 297 -9 q 36 -102 140 -102 q -99 -41 -67 -102 q -118 22 -118 -10 q -96 102 -118 64 m -86 67 q -92 26 -92 46 q -79 -29 -92 -2 q 36 -76 -44 -76 q 209 -32 120 -76 q 376 94 269 1 q 208 133 297 115 q 78 148 134 148 q -86 67 -52 148 m 1246 1052 q 1462 1036 1336 1035 q 1657 1067 1587 1036 q 1722 1123 1705 1090 q 1727 1150 1727 1136 q 1722 1176 1726 1163 q 1683 1213 1711 1201 q 1622 1224 1657 1224 q 1436 1178 1547 1224 q 1246 1052 1338 1139 "}," ":{"x_min":0,"x_max":0,"ha":255},"u":{"x_min":-71,"x_max":1166.71875,"ha":1164,"o":"m -55 186 q 153 536 -6 310 l 224 636 l 279 715 l 297 740 q 307 747 302 747 q 314 744 310 747 q 316 726 324 736 l 307 713 l 279 676 l 241 624 l 193 559 l 141 485 l 88 405 q 39 324 70 377 q -1 247 18 290 q -32 179 -25 200 q -45 113 -45 141 q -32 67 -45 85 q 38 36 -8 37 q 50 36 44 36 q 142 50 95 36 q 240 83 197 65 q 312 116 278 98 q 735 455 523 227 l 797 532 l 860 610 q 880 634 873 625 q 896 654 888 643 q 914 675 905 664 q 937 703 927 692 q 954 724 946 715 l 969 743 l 986 726 l 752 438 q 588 182 638 298 q 563 89 563 128 q 569 53 563 69 q 648 12 586 13 q 666 13 657 12 q 807 58 730 19 q 1145 310 963 135 q 1162 310 1154 318 q 1166 300 1166 304 q 1162 292 1166 296 q 818 35 983 119 q 647 -11 723 -11 q 640 -12 643 -11 q 563 13 593 -12 q 538 77 538 36 q 539 94 538 86 q 567 192 546 149 q 647 333 604 269 l 615 304 q 320 91 466 167 q 55 11 167 11 q -52 52 -21 11 q -71 113 -71 76 q -55 186 -71 145 "},"k":{"x_min":-132.296875,"x_max":1004.09375,"ha":931,"o":"m -132 -6 q 71 393 -82 129 q 353 828 171 566 l 462 982 l 560 1120 l 636 1223 l 692 1296 l 710 1321 q 741 1358 722 1339 q 810 1414 764 1383 q 900 1445 857 1445 l 901 1445 q 989 1393 953 1443 q 1004 1346 1003 1373 q 975 1252 1004 1308 q 851 1083 938 1179 q 592 829 753 972 l 402 674 q 527 715 472 699 q 662 734 604 734 q 771 710 728 734 q 838 611 830 677 q 840 590 840 600 q 804 492 840 535 q 690 407 767 442 q 537 366 614 372 q 497 364 518 364 q 331 387 423 364 q 250 415 295 396 q 228 311 238 373 q 222 232 222 268 q 250 99 222 152 q 419 10 297 10 q 511 21 461 10 q 688 103 585 36 q 925 291 785 163 q 944 290 935 300 q 942 272 949 281 q 515 -3 676 26 q 415 -14 460 -14 q 313 3 356 -14 q 227 88 262 25 q 197 236 197 149 q 202 316 197 274 q 213 376 205 337 q 221 403 216 387 q 226 422 226 419 l 230 437 l 234 450 l 248 443 l 254 440 q 269 435 266 436 q 292 427 279 431 q 306 422 296 425 q 322 416 317 418 q 339 411 327 415 q 358 405 351 406 q 378 402 365 404 q 397 399 392 400 q 441 393 423 394 l 487 389 q 534 391 504 389 q 680 429 616 398 q 785 508 751 463 q 815 589 814 543 q 813 607 815 598 q 759 687 808 663 q 677 708 728 706 q 660 708 668 708 q 581 701 621 708 q 490 679 530 692 q 421 656 454 668 q 403 648 413 653 q 393 644 394 644 q 41 289 208 568 q -108 -15 -54 124 l -132 -6 m 205 560 q 576 849 416 708 q 834 1100 736 988 q 953 1264 920 1196 q 979 1345 979 1312 q 969 1379 979 1365 q 901 1419 941 1418 q 730 1306 821 1419 l 374 813 l 205 560 "}," ":{"x_min":0,"x_max":0,"ha":766},"€":{"x_min":-184.484375,"x_max":1287.46875,"ha":1132,"o":"m -172 467 q -184 479 -184 467 q -172 492 -184 492 l 668 492 q 680 479 680 492 q 668 467 680 467 l -172 467 m -1 756 q -13 769 -13 756 q -1 782 -13 782 l 838 782 q 851 769 851 782 q 838 756 851 756 l -1 756 m 57 267 q 259 743 57 477 q 616 1088 408 937 q 555 1241 564 1160 q 565 1255 553 1253 q 580 1243 577 1258 q 637 1104 596 1159 q 701 1148 662 1123 q 1011 1294 870 1257 q 1130 1311 1081 1311 q 1275 1228 1239 1311 q 1247 1064 1309 1149 q 1119 961 1198 996 q 954 923 1037 925 q 702 1001 809 923 q 630 1071 656 1033 l 555 1015 q 173 572 307 809 q 113 434 133 498 q 82 280 90 356 q 103 134 74 201 q 201 33 132 66 q 542 59 346 -36 q 855 332 739 155 q 872 337 860 342 q 875 319 883 329 q 689 119 803 208 q 446 -7 576 31 q 189 10 313 -45 q 57 267 57 73 m 649 1085 q 714 1022 677 1051 q 951 949 823 940 q 1224 1077 1132 957 q 1249 1219 1280 1154 q 1127 1285 1218 1285 q 1013 1270 1074 1285 q 649 1085 843 1230 "},"¢":{"x_min":32.609375,"x_max":1189.5,"ha":1136,"o":"m 34 -331 l 211 -55 q 127 9 159 -37 q 83 189 83 74 q 107 353 83 268 q 329 775 171 573 q 643 1061 475 958 q 948 1160 805 1160 q 990 1158 981 1160 l 1165 1431 q 1182 1436 1170 1439 q 1186 1418 1194 1431 l 1017 1154 q 1127 1088 1099 1141 q 1139 1029 1143 1064 q 1130 970 1138 1002 q 1109 917 1124 947 q 1085 876 1099 897 q 1079 866 1082 872 q 1074 858 1076 860 q 1056 856 1066 848 q 1053 872 1046 861 q 1076 908 1060 879 q 1110 990 1095 945 q 1105 1076 1127 1039 q 1003 1132 1078 1122 l 251 -41 l 281 -46 q 609 42 483 -63 q 660 92 643 70 q 689 134 681 120 q 696 151 696 147 q 713 156 701 160 q 721 141 725 149 q 627 23 683 69 q 491 -50 566 -25 q 331 -74 412 -74 q 279 -71 302 -74 q 237 -64 252 -69 l 56 -345 q 46 -351 51 -351 q 43 -350 44 -351 q 38 -348 41 -349 q 34 -331 29 -342 m 110 247 q 112 130 104 191 q 148 24 120 64 q 224 -34 178 -19 l 973 1133 q 950 1135 969 1135 l 947 1135 q 646 1033 806 1132 q 348 759 486 934 q 130 345 195 566 q 110 247 117 307 "},"s":{"x_min":-16,"x_max":823.09375,"ha":749,"o":"m -11 300 q -16 309 -16 304 q -10 318 -16 313 q 45 366 -3 324 l 192 492 l 358 633 q 407 821 358 777 q 456 844 430 843 q 478 840 467 844 q 512 806 506 832 q 514 790 514 798 q 496 736 514 766 q 452 680 472 699 q 393 630 438 667 q 383 621 388 626 l 383 613 q 394 482 385 548 q 403 352 403 404 q 403 333 403 342 q 486 368 450 355 q 551 388 536 385 l 575 396 q 780 429 686 429 q 810 428 795 429 q 823 415 823 428 q 810 403 823 403 q 782 404 796 404 q 582 371 695 404 q 404 305 492 343 l 403 289 q 402 281 403 285 q 401 276 401 277 q 310 4 389 74 q 225 -24 276 -24 q 205 -23 215 -24 q 117 31 140 -16 q 107 81 107 54 q 120 141 107 110 q 371 320 158 230 q 375 321 374 320 l 378 323 q 378 341 378 331 q 370 478 378 379 q 360 602 366 522 q 5 299 47 341 q -11 300 -5 289 m 140 42 q 213 1 159 5 q 228 1 221 1 q 294 23 271 1 q 378 294 369 87 q 143 127 177 211 q 132 77 132 99 q 140 42 132 57 m 383 655 q 442 705 412 675 q 489 787 489 754 q 487 800 489 794 q 468 817 483 813 q 458 819 463 819 q 423 804 442 819 q 383 655 387 772 "},"B":{"x_min":-262,"x_max":1501.3125,"ha":1381,"o":"m -262 58 q -252 69 -262 68 q -236 60 -238 72 q -194 -10 -228 15 q -102 -44 -157 -43 q -68 -41 -86 -44 q 80 27 7 -32 q 213 185 147 84 q 355 421 254 247 l 500 662 q 755 1086 660 951 q 890 1245 823 1182 l 880 1245 q 486 1123 662 1245 q 350 995 397 1061 q 331 992 342 984 q 329 1011 321 1000 l 335 1017 q 342 1026 336 1019 q 352 1037 348 1033 l 380 1066 q 419 1102 388 1074 q 468 1141 445 1127 q 880 1271 653 1270 q 916 1269 910 1271 q 1038 1357 973 1322 q 1280 1415 1144 1415 q 1307 1414 1293 1415 q 1422 1385 1365 1413 q 1499 1311 1478 1358 q 1501 1304 1501 1307 q 1493 1294 1501 1297 q 1476 1300 1484 1289 q 1407 1363 1458 1338 q 1304 1390 1358 1387 q 1293 1390 1299 1390 q 1048 1335 1147 1390 q 951 1266 1011 1315 q 1001 1261 962 1266 q 1283 1127 1200 1229 q 1345 951 1345 1053 q 1335 874 1345 902 q 1304 806 1319 829 q 1169 692 1255 727 q 1117 673 1133 679 q 1211 562 1181 617 q 1252 393 1252 490 q 1206 208 1252 297 q 1044 28 1150 96 q 811 -38 939 -38 q 536 39 647 -38 q 427 273 427 115 q 427 281 427 276 q 428 290 428 287 q 429 298 428 293 q 429 305 429 304 q 430 311 429 308 q 431 316 431 315 q 431 320 431 318 l 432 323 l 432 326 q 447 336 433 339 q 456 319 457 334 q 452 273 452 298 q 529 77 452 162 q 811 -12 619 -12 q 1027 48 929 -12 q 1182 219 1126 108 q 1227 393 1227 308 q 1190 545 1227 470 q 1102 653 1167 595 q 1087 667 1090 663 q 989 659 1037 659 q 894 667 941 659 q 790 735 790 684 q 812 780 790 763 q 865 796 833 796 q 938 783 901 796 q 1093 694 1013 755 q 1253 780 1192 715 l 1271 801 q 1278 812 1273 805 q 1284 821 1283 819 q 1294 838 1288 827 l 1303 855 q 1305 863 1304 858 q 1307 869 1307 867 l 1309 877 l 1311 881 q 1320 951 1319 914 q 1264 1112 1320 1044 q 997 1236 1185 1206 q 925 1244 959 1243 q 862 1179 886 1206 q 739 1022 810 1124 q 643 860 700 961 l 519 651 l 298 278 q 96 9 183 84 q -65 -66 19 -55 q -100 -69 -84 -69 q -209 -30 -165 -69 q -245 10 -228 -14 q -262 58 -262 35 m 815 734 q 865 699 815 712 q 994 685 910 687 q 1060 688 1030 685 q 933 758 975 744 q 866 770 895 770 q 830 759 848 770 q 815 734 815 750 "},"…":{"x_min":107,"x_max":881.671875,"ha":926,"o":"m 725 64 q 748 119 725 96 q 802 143 771 143 q 857 119 834 143 q 881 64 881 96 q 857 10 881 33 q 802 -13 834 -13 q 748 10 771 -13 q 725 64 725 33 m 417 64 q 440 119 417 96 q 494 143 463 143 q 549 119 526 143 q 573 64 573 96 q 549 10 573 33 q 494 -13 526 -13 q 440 10 463 -13 q 417 64 417 33 m 107 64 q 130 119 107 96 q 184 143 153 143 q 239 119 216 143 q 263 64 263 96 q 239 10 263 33 q 184 -13 216 -13 q 130 10 153 -13 q 107 64 107 33 "},"?":{"x_min":82,"x_max":1108.65625,"ha":1160,"o":"m 82 64 q 104 119 82 97 q 160 143 128 143 q 215 119 191 143 q 238 64 238 96 q 215 10 238 33 q 159 -13 191 -13 q 104 10 127 -13 q 82 64 82 32 m 250 259 l 444 571 l 451 571 q 847 677 653 541 q 1055 916 995 782 q 1042 1138 1119 1058 q 960 1186 1011 1169 q 807 1199 890 1212 q 650 1147 733 1188 q 513 1034 574 1110 q 416 865 449 958 q 401 857 410 853 q 393 872 390 860 q 619 1158 453 1052 q 964 1211 785 1262 q 1108 1029 1112 1166 q 981 762 1107 902 q 657 559 844 609 q 458 545 551 531 l 272 247 q 261 239 269 240 l 258 241 q 254 242 255 242 q 250 259 244 248 "},"H":{"x_min":-24,"x_max":1756.1875,"ha":1282,"o":"m -24 -131 q 93 160 -24 3 q 587 532 256 373 l 686 838 q 916 1350 803 1190 l 921 1358 q 927 1366 921 1358 q 892 1380 893 1378 q 744 1497 815 1415 q 746 1515 735 1507 q 762 1513 754 1523 q 902 1404 833 1433 q 944 1387 929 1392 q 1113 1524 1023 1491 q 1168 1536 1144 1536 q 1204 1527 1188 1536 q 1229 1484 1227 1511 q 1230 1477 1229 1480 q 1219 1439 1230 1455 q 1159 1387 1203 1415 q 1021 1351 1098 1351 q 953 1360 989 1351 q 945 1347 951 1355 q 942 1343 944 1346 q 938 1339 939 1340 q 937 1336 937 1337 q 780 1026 857 1222 q 618 547 717 859 q 866 650 739 604 q 1141 763 1009 699 q 1389 1147 1255 969 l 1390 1148 q 1393 1152 1391 1150 q 1395 1157 1394 1154 q 1415 1180 1401 1163 l 1440 1209 q 1557 1314 1498 1276 q 1650 1347 1608 1346 q 1727 1316 1697 1347 q 1756 1243 1756 1285 q 1683 1099 1752 1167 q 1674 1090 1680 1096 q 1659 1075 1667 1083 q 1594 1021 1650 1066 q 1488 940 1525 966 q 1344 846 1431 898 q 1159 745 1240 783 q 1013 442 1069 586 q 941 124 941 255 q 970 -18 941 43 q 1055 -126 1005 -85 q 1187 -185 1105 -161 q 1195 -201 1196 -189 q 1180 -210 1194 -213 q 1041 -146 1088 -182 q 948 -29 985 -107 q 916 124 916 36 q 990 451 916 259 q 1119 726 1038 578 q 874 626 1008 672 q 607 516 734 576 l 491 153 q 444 30 469 93 q 326 -198 383 -115 q 219 -312 271 -278 q 145 -334 183 -334 l 111 -329 q 20 -269 55 -313 q -24 -131 -24 -213 m 1 -131 q 39 -255 1 -211 q 116 -305 73 -295 q 146 -308 131 -308 q 202 -293 176 -308 q 257 -247 225 -281 q 355 -99 307 -190 q 467 161 419 19 l 576 499 q 113 145 261 345 q 1 -131 1 -4 m 969 1381 q 1020 1377 997 1377 q 1084 1385 1052 1377 q 1129 1400 1117 1393 l 1144 1408 q 1197 1452 1182 1432 q 1202 1484 1206 1471 q 1190 1504 1198 1498 q 1163 1511 1178 1511 q 1122 1501 1145 1511 q 969 1381 1040 1465 m 1182 783 q 1440 937 1319 854 q 1604 1059 1562 1020 q 1664 1117 1655 1107 q 1730 1243 1730 1186 q 1705 1298 1728 1276 q 1650 1322 1681 1322 q 1501 1237 1588 1321 q 1366 1072 1413 1150 l 1261 914 q 1182 783 1195 809 "},"c":{"x_min":-37,"x_max":990.46875,"ha":979,"o":"m -34 134 q -37 160 -37 147 q -5 284 -37 213 q 109 454 31 367 q 280 600 190 542 q 461 682 376 661 q 567 696 524 696 q 602 693 586 696 q 676 653 651 685 q 696 591 696 619 q 678 529 696 558 q 660 523 673 519 q 656 540 650 529 q 671 590 671 567 q 654 637 671 615 q 567 671 630 671 q 466 656 525 671 q 293 579 383 638 q 127 436 204 522 q 18 277 55 356 q -11 163 -11 212 q -9 138 -11 150 q 40 62 -3 91 q 131 29 85 33 q 171 25 139 28 q 221 21 204 22 q 250 20 239 20 q 270 22 268 20 l 272 22 q 494 59 347 22 q 968 307 750 123 q 986 306 977 315 q 990 296 990 301 q 985 287 990 291 q 728 118 861 187 q 500 32 614 61 q 273 -5 352 -5 l 265 -5 l 247 -5 q 236 -5 245 -5 q 225 -6 228 -6 q 132 0 180 -6 q -34 134 -17 27 "},"•":{"x_min":71,"x_max":336.859375,"ha":395,"o":"m 71 434 q 108 528 71 488 q 203 567 146 567 q 297 528 258 567 q 336 434 336 489 q 297 341 336 380 q 203 302 258 302 q 108 339 146 302 q 71 434 71 377 "},"(":{"x_min":144.921875,"x_max":1090.0625,"ha":532,"o":"m 153 -192 q 250 442 115 129 q 571 935 356 691 q 910 1256 719 1102 q 1069 1370 1007 1333 q 1087 1366 1079 1375 q 1083 1350 1093 1356 q 1064 1335 1081 1350 q 1009 1293 1049 1325 q 929 1233 990 1279 q 589 917 737 1087 q 423 703 502 820 q 281 451 349 594 q 184 142 214 309 q 178 -189 157 -18 q 167 -203 179 -198 l 165 -203 q 153 -192 157 -203 "},"U":{"x_min":-236,"x_max":1696.671875,"ha":1251,"o":"m -201 1215 q 7 1286 -145 1286 q 190 1261 98 1286 q 334 1208 262 1239 q 449 1161 412 1175 q 694 1104 567 1115 q 698 1107 696 1105 q 704 1112 701 1109 q 718 1124 708 1116 q 741 1144 727 1132 q 799 1192 769 1169 q 854 1225 818 1208 q 919 1245 891 1243 q 929 1245 925 1245 q 989 1229 966 1245 q 1017 1170 1017 1209 q 982 1108 1017 1130 q 899 1079 950 1087 q 788 1073 846 1073 q 700 1076 745 1073 q 494 891 581 979 q 151 432 273 675 q 77 164 76 283 q 165 -41 77 33 q 350 -105 243 -105 q 356 -105 353 -105 q 637 -10 516 -105 q 834 245 760 84 q 994 552 897 392 q 1077 677 1048 640 q 1249 872 1162 788 q 1413 1008 1340 958 q 1550 1090 1487 1058 q 1646 1133 1611 1122 q 1680 1145 1679 1144 q 1696 1136 1694 1149 q 1696 1131 1697 1133 q 1687 1120 1696 1122 q 1660 1111 1667 1114 q 1650 1107 1655 1109 q 1641 1104 1644 1105 q 1637 1103 1638 1103 q 1501 1033 1579 1079 q 1097 664 1272 896 q 962 449 1037 583 q 814 126 863 269 q 773 -76 773 2 q 839 -203 773 -176 q 897 -215 868 -215 q 972 -194 935 -215 q 1069 -81 1036 -155 q 1103 67 1103 -6 q 1113 81 1103 77 q 1128 70 1123 81 q 1107 -50 1128 12 q 1048 -161 1087 -110 q 954 -232 1011 -211 q 903 -241 930 -241 q 829 -226 868 -241 q 748 -78 748 -194 q 781 108 748 -2 q 595 -69 693 -9 q 349 -131 496 -130 q 150 -61 233 -131 q 52 163 52 18 q 129 442 52 287 q 476 909 247 680 q 666 1080 571 1001 q 440 1138 554 1096 l 330 1183 q 183 1237 233 1223 q 7 1260 91 1260 q -182 1198 -132 1260 q -210 1126 -208 1166 q -210 1119 -210 1123 q -187 1049 -210 1081 q -55 991 -142 996 q -42 977 -43 988 q -56 966 -42 965 q -112 976 -84 968 q -205 1033 -174 997 q -236 1117 -236 1070 q -201 1215 -236 1174 m 730 1101 q 794 1098 762 1098 q 895 1105 844 1098 q 992 1170 992 1117 q 932 1220 992 1219 q 922 1219 927 1220 q 868 1204 894 1216 q 821 1178 836 1189 q 771 1135 795 1158 l 730 1101 "},"F":{"x_min":-40,"x_max":1910.09375,"ha":1155,"o":"m -40 104 q -33 164 -40 125 q -17 173 -28 176 q -7 158 -5 172 q -14 104 -14 123 q 18 12 -14 46 q 111 -27 52 -20 q 140 -29 125 -29 q 272 8 207 -29 q 406 120 337 47 q 509 241 454 170 l 640 416 l 729 535 l 741 550 q 592 528 666 528 q 519 533 550 528 q 448 562 483 539 q 417 614 417 582 q 417 625 417 620 q 555 708 427 708 q 658 695 596 708 q 718 680 693 689 q 768 665 759 667 q 817 652 795 656 q 1052 942 953 831 q 1202 1093 1135 1032 q 887 1191 1052 1131 q 691 1227 787 1227 q 507 1190 599 1227 q 349 1091 410 1151 q 331 1091 340 1083 q 330 1108 322 1099 q 494 1214 398 1176 q 691 1253 593 1253 q 895 1215 791 1253 q 1225 1113 1073 1152 q 1421 1246 1323 1198 q 1702 1317 1562 1316 q 1884 1268 1836 1317 q 1910 1208 1910 1249 q 1909 1194 1910 1202 q 1855 1098 1905 1142 q 1644 1032 1783 1038 q 1532 1034 1587 1032 q 1410 1048 1484 1037 q 1232 1084 1318 1061 l 1184 1043 q 844 648 1044 910 q 889 646 864 646 q 1041 684 969 646 q 1058 680 1051 692 q 1052 663 1065 668 q 888 620 973 621 q 827 625 856 620 l 806 598 l 780 564 q 772 553 778 561 q 762 540 766 545 q 748 521 750 523 q 495 185 536 233 q 284 -13 376 41 q 139 -54 211 -53 q 108 -52 124 -54 q -2 -2 37 -44 q -40 104 -40 39 m 442 616 q 469 577 442 592 q 533 556 500 560 q 578 553 559 553 q 592 553 586 553 q 688 564 628 553 q 765 584 747 575 q 780 603 771 591 q 801 630 789 614 q 793 632 798 630 q 780 635 788 633 q 761 641 767 639 q 662 668 697 659 q 653 670 654 670 q 555 682 597 682 q 442 616 442 682 m 1255 1104 q 1422 1070 1347 1080 q 1536 1058 1496 1061 q 1643 1057 1561 1057 q 1823 1106 1758 1061 q 1878 1169 1858 1125 q 1885 1200 1885 1185 q 1867 1248 1885 1225 q 1703 1291 1828 1287 q 1433 1223 1568 1291 q 1255 1104 1340 1174 "},"­":{"x_min":65.109375,"x_max":930.515625,"ha":993,"o":"m 78 421 q 65 433 65 421 q 78 446 65 446 l 918 446 q 930 433 930 446 q 918 421 930 421 l 78 421 "},":":{"x_min":163,"x_max":410.671875,"ha":448,"o":"m 163 143 q 186 199 163 176 q 241 222 208 222 q 296 199 273 222 q 319 143 319 176 q 296 87 319 111 q 241 65 273 65 q 186 87 208 65 q 163 143 163 111 m 254 522 q 275 578 254 556 q 331 601 297 601 q 386 578 364 601 q 410 522 410 555 q 386 466 410 490 q 330 444 364 444 q 275 466 297 444 q 254 522 254 488 "},"*":{"x_min":67.640625,"x_max":553.921875,"ha":597,"o":"m 67 966 l 67 971 q 105 1015 68 1004 q 180 1005 138 1024 q 288 977 226 986 q 193 1036 249 1013 q 134 1081 151 1053 q 137 1138 116 1112 l 141 1143 q 198 1147 169 1164 q 243 1087 226 1130 q 302 991 265 1034 q 275 1100 294 1053 q 265 1175 255 1141 q 309 1212 275 1211 l 313 1212 q 358 1174 349 1209 q 347 1100 366 1140 q 320 991 327 1053 q 377 1087 357 1036 q 425 1146 397 1129 q 482 1143 455 1164 l 486 1138 q 490 1081 509 1110 q 429 1036 470 1051 q 333 977 376 1013 q 441 1005 393 986 q 516 1015 482 1025 q 553 971 552 1004 l 553 966 q 536 931 552 944 q 494 921 520 921 q 441 933 469 921 q 333 959 393 952 q 429 902 387 918 q 490 855 475 882 q 484 798 507 825 l 482 795 q 425 791 455 773 q 377 851 395 808 q 320 947 361 892 q 347 838 327 886 q 359 785 359 810 q 348 744 359 759 q 313 726 336 727 l 309 726 q 265 763 276 727 q 275 838 255 796 q 302 947 294 887 q 243 851 265 901 q 198 791 227 808 q 140 793 168 774 q 131 852 115 819 q 193 902 148 886 q 288 959 244 922 q 180 933 226 952 q 105 922 140 913 q 67 966 70 930 "},"V":{"x_min":-232,"x_max":1628.09375,"ha":1594,"o":"m -232 -120 q -196 -49 -232 -81 q -36 -2 -136 -2 q 85 -13 10 -2 q 86 -10 85 -11 q 224 285 125 98 q 414 597 314 456 q 727 969 600 850 q 815 1045 763 1004 q 591 1103 708 1061 q 508 1138 542 1123 q 415 1176 501 1140 q 334 1203 377 1192 q 157 1225 243 1226 q 46 1212 89 1225 q -56 1109 -43 1177 q -57 1086 -57 1097 q -36 1016 -57 1043 q 12 978 -21 994 q 94 957 60 957 q 107 943 107 955 q 93 932 107 932 q 38 942 65 934 q -54 999 -24 963 q -83 1085 -83 1037 q -80 1113 -83 1099 q 4 1221 -61 1191 q 157 1251 67 1251 q 341 1226 249 1251 q 424 1200 389 1214 l 518 1162 l 601 1128 q 843 1068 734 1077 l 946 1150 q 1070 1210 1013 1205 q 1080 1210 1076 1210 q 1139 1195 1116 1210 q 1166 1145 1166 1178 q 1167 1137 1166 1141 q 1122 1065 1167 1090 q 934 1038 1068 1038 q 855 1042 894 1038 q 744 951 782 984 q 435 582 608 819 q 244 273 335 443 q 110 -18 155 105 q 544 -66 358 -67 q 1091 137 844 -66 q 1603 1284 1499 475 q 1617 1296 1603 1295 q 1628 1281 1628 1293 q 1106 117 1522 463 q 544 -92 855 -92 q 98 -41 324 -85 q 23 -148 67 -107 q -121 -200 -31 -198 q -198 -180 -169 -200 q -232 -120 -230 -159 m -206 -119 q -179 -161 -204 -147 q -121 -174 -152 -174 q 6 -129 -40 -170 q 74 -37 36 -101 q -36 -27 7 -27 q -179 -68 -127 -27 q -206 -119 -206 -92 m 882 1065 q 937 1064 894 1064 q 1109 1087 1070 1064 q 1142 1137 1142 1104 q 1141 1145 1142 1141 q 1084 1184 1135 1184 q 1073 1184 1078 1184 q 962 1130 1020 1177 l 882 1065 "}," ":{"x_min":0,"x_max":0,"ha":570},"0":{"x_min":92.078125,"x_max":1089.734375,"ha":1079,"o":"m 109 451 q 297 895 151 658 q 552 1198 419 1087 q 781 1330 659 1287 q 837 1346 797 1335 q 886 1355 874 1354 q 927 1359 909 1357 l 962 1359 l 988 1359 q 1005 1356 996 1359 l 1012 1355 q 1022 1340 1026 1350 q 1005 1330 1020 1327 q 788 1306 918 1351 q 320 882 530 1214 q 137 446 179 653 q 155 122 96 250 q 331 0 208 11 q 672 134 505 -20 q 987 634 847 296 q 1053 851 1039 761 q 1058 1014 1070 950 q 1029 1114 1046 1078 q 991 1175 1009 1155 q 902 1231 952 1215 q 803 1232 849 1246 l 801 1232 q 783 1225 800 1232 q 751 1193 772 1220 q 731 1133 734 1169 q 766 1068 730 1095 q 833 1034 803 1042 q 870 1026 858 1027 q 883 1011 886 1024 q 868 999 881 994 q 786 1023 836 999 q 704 1136 699 1063 q 751 1235 705 1195 q 794 1258 779 1258 q 910 1258 849 1276 q 1012 1192 967 1241 q 1089 979 1084 1112 q 1012 622 1096 818 q 691 114 872 283 q 512 -2 604 33 q 369 -30 442 -30 q 328 -28 339 -30 q 130 110 188 -13 q 109 451 65 241 "},"”":{"x_min":70.84375,"x_max":407.5,"ha":452,"o":"m 72 796 l 262 1178 q 279 1183 267 1190 q 284 1166 290 1179 l 94 784 q 83 778 91 778 q 78 779 79 778 q 72 796 67 785 m 193 796 l 383 1178 q 400 1183 388 1190 q 405 1166 411 1179 l 215 784 q 204 778 212 778 q 198 779 200 778 q 193 796 188 786 "},"@":{"x_min":67.90625,"x_max":1549.890625,"ha":1586,"o":"m 68 319 q 168 588 70 450 q 471 873 282 751 q 869 1042 663 996 q 1270 1034 1076 1088 q 1458 932 1389 994 q 1546 781 1529 870 q 1503 585 1563 692 q 1410 456 1471 523 q 1274 328 1349 389 q 1115 235 1200 268 q 964 220 1033 202 q 904 277 908 237 q 953 378 897 319 l 864 316 q 779 257 835 293 q 676 208 724 222 q 576 193 623 192 q 441 238 499 193 q 377 356 383 284 q 551 649 362 490 q 1023 860 799 859 q 1151 834 1093 860 q 1221 750 1206 809 q 1116 522 1241 657 l 1122 526 q 1225 600 1160 555 l 1309 659 q 1342 678 1341 679 q 1359 674 1352 687 q 1355 658 1365 666 l 1354 658 q 1350 655 1352 657 q 1343 650 1347 653 q 1334 644 1340 648 q 1324 638 1329 641 l 1239 578 q 1135 505 1175 533 q 929 281 919 348 q 972 245 929 255 q 1115 261 1033 228 q 1266 355 1196 295 q 1397 481 1337 416 q 1483 598 1456 548 q 1524 744 1524 675 q 1491 861 1525 813 q 1398 948 1456 909 q 1264 1010 1342 984 q 864 1015 1076 1066 q 473 842 660 964 q 189 574 288 722 q 93 306 87 427 q 174 104 98 185 q 374 -17 246 23 q 637 -40 496 -55 q 957 37 825 -19 q 1202 190 1091 95 q 1220 190 1211 198 q 1222 173 1230 182 q 959 9 1114 70 q 639 -66 800 -53 q 343 -33 483 -80 q 138 101 212 11 q 68 319 65 186 m 402 359 q 461 256 409 294 q 576 218 515 218 q 723 259 640 218 q 857 339 808 302 l 994 450 q 1194 746 1221 640 q 1022 835 1167 835 q 800 780 918 835 q 568 630 679 725 q 402 359 389 480 "},"i":{"x_min":-91,"x_max":605.140625,"ha":594,"o":"m -86 68 q -91 103 -91 84 q -84 152 -91 125 q -41 258 -74 203 l 15 353 q 80 446 55 414 q 93 466 84 452 l 190 598 q 270 699 243 668 q 286 718 278 709 q 298 732 294 727 l 302 737 q 320 739 308 746 q 321 721 330 733 l 318 716 q 306 702 314 711 q 291 683 298 692 q 209 582 285 677 q 113 453 156 515 q -32 220 0 287 q -65 101 -65 150 q -63 74 -65 87 q 39 30 -50 30 q 300 112 152 30 q 584 310 451 195 q 602 309 594 320 q 605 300 605 304 q 601 291 605 296 q 39 5 261 5 q -86 68 -72 5 m 370 915 q 390 962 370 944 q 437 981 412 981 q 483 962 464 981 q 504 915 504 941 q 485 868 504 890 q 437 847 466 847 q 390 868 411 847 q 370 915 370 889 "},"]":{"x_min":-189.21875,"x_max":1057.359375,"ha":1155,"o":"m -176 -279 q -189 -266 -189 -279 q -176 -253 -189 -253 l 15 -253 l 1023 1298 l 818 1298 q 805 1311 805 1298 q 818 1324 805 1324 l 1044 1324 q 1055 1317 1052 1324 q 1055 1304 1059 1311 l 31 -273 q 20 -279 26 -278 l -176 -279 "},"m":{"x_min":-349,"x_max":1735.125,"ha":1718,"o":"m -349 -6 l -292 51 l -165 181 q -60 289 -91 254 q 206 661 206 582 q 205 669 206 665 q 191 684 201 679 q 182 701 181 688 q 193 710 186 710 q 199 710 196 710 q 229 673 225 698 q 231 661 231 667 q 151 501 231 608 q 31 351 110 440 l 69 383 q 422 635 255 540 q 587 705 519 690 q 672 717 635 717 q 793 637 767 717 q 800 591 799 616 q 753 423 800 522 q 714 347 744 401 q 719 353 715 348 q 727 360 724 357 l 740 373 q 1023 611 894 528 q 1271 698 1159 698 q 1304 695 1287 698 q 1395 636 1374 686 q 1403 594 1402 617 q 1216 269 1403 481 q 1114 92 1114 150 q 1120 68 1114 78 q 1191 32 1139 36 q 1214 31 1202 31 q 1290 41 1252 31 q 1375 70 1341 55 q 1712 308 1537 139 q 1731 308 1722 318 q 1735 300 1735 304 q 1731 290 1735 295 q 1383 47 1539 111 q 1283 13 1333 26 q 1216 6 1252 5 q 1177 8 1197 6 q 1097 55 1121 13 q 1089 90 1089 70 q 1101 144 1089 113 q 1198 286 1121 196 q 1358 514 1317 423 q 1378 591 1378 558 q 1371 625 1378 609 q 1346 655 1363 643 q 1317 668 1329 666 q 1301 671 1303 671 q 1275 672 1288 672 q 1036 589 1170 672 q 756 355 908 509 q 625 213 691 290 q 539 108 602 189 q 445 -5 478 30 l 427 9 q 605 230 449 32 q 731 433 687 342 q 775 585 775 522 q 769 628 775 608 q 752 662 762 651 q 730 680 740 675 l 722 684 q 669 692 698 693 q 470 632 589 692 q 84 365 302 547 q -160 145 -38 265 l -330 -23 l -349 -6 "},"ﬃ":{"x_min":-669,"x_max":2022.140625,"ha":2011,"o":"m 1330 68 q 1326 103 1326 84 q 1332 152 1326 125 q 1375 258 1342 203 l 1432 353 q 1497 446 1472 414 q 1510 466 1501 452 l 1607 598 q 1687 699 1660 668 q 1703 718 1695 709 q 1715 732 1711 727 l 1719 737 q 1737 739 1725 746 q 1738 721 1747 733 l 1735 716 q 1723 702 1731 711 q 1708 683 1715 692 q 1626 582 1702 677 q 1530 453 1573 515 q 1384 220 1416 287 q 1351 101 1351 150 q 1353 74 1351 87 q 1456 30 1366 30 q 1717 112 1569 30 q 2001 310 1868 195 q 2019 309 2011 320 q 2022 300 2022 304 q 2018 291 2022 296 q 1456 5 1678 5 q 1330 68 1344 5 m 1787 915 q 1807 962 1787 944 q 1854 981 1829 981 q 1900 962 1881 981 q 1921 915 1921 941 q 1902 868 1921 890 q 1854 847 1883 847 q 1807 868 1828 847 q 1787 915 1787 889 m 45 -766 q 39 -732 39 -752 q 79 -584 39 -680 q 138 -466 114 -502 q 700 304 241 -262 l 903 555 q 1579 1362 1364 1124 q 1665 1406 1622 1406 q 1683 1405 1674 1406 q 1740 1361 1723 1398 q 1752 1304 1752 1335 q 1751 1287 1752 1296 q 1740 1219 1747 1248 q 1730 1186 1733 1191 q 1503 837 1672 1016 q 1017 444 1322 645 q 724 287 919 379 l 605 141 q 704 77 650 97 q 853 52 772 52 q 1213 147 1008 52 q 1452 301 1340 207 q 1470 300 1463 311 q 1468 282 1477 289 q 1223 123 1354 186 q 850 26 1010 26 q 693 55 764 26 q 610 106 642 74 q 613 32 613 69 q 534 -333 613 -149 q 298 -693 444 -551 q 103 -799 187 -799 q 45 -766 58 -798 m 68 -756 q 89 -771 75 -767 q 108 -773 99 -773 q 279 -674 176 -773 q 514 -317 421 -540 q 588 27 587 -142 q 583 113 588 71 q 161 -479 246 -316 q 102 -595 123 -548 q 64 -728 64 -683 q 68 -756 64 -745 m 760 332 q 1002 465 917 410 q 1706 1194 1585 850 q 1716 1222 1710 1198 q 1725 1284 1720 1240 q 1727 1302 1727 1293 q 1717 1352 1727 1328 q 1677 1381 1708 1377 q 1669 1381 1673 1382 q 1599 1344 1634 1381 q 1580 1321 1594 1337 q 1539 1274 1566 1306 q 1488 1215 1513 1243 l 1237 918 l 927 537 l 760 332 m -662 -766 q -669 -732 -669 -752 q -628 -584 -669 -680 q -569 -466 -593 -502 q -7 304 -466 -262 l 195 555 q 871 1362 656 1124 q 957 1406 914 1406 q 975 1405 966 1406 q 1032 1361 1015 1398 q 1044 1304 1044 1335 q 1043 1287 1044 1296 q 1032 1219 1039 1248 q 1022 1186 1025 1191 q 795 837 964 1016 q 309 444 614 645 q 16 287 211 379 l -102 141 q -3 77 -57 97 q 145 52 64 52 q 505 147 300 52 q 744 301 632 207 q 762 300 755 311 q 760 282 769 289 q 515 123 646 186 q 142 26 302 26 q -14 55 56 26 q -97 106 -65 74 q -94 32 -94 69 q -173 -333 -94 -149 q -409 -693 -263 -551 q -604 -799 -520 -799 q -662 -766 -649 -798 m -639 -756 q -618 -771 -632 -767 q -599 -773 -608 -773 q -428 -674 -531 -773 q -193 -317 -286 -540 q -120 27 -120 -142 q -124 113 -120 71 q -546 -479 -461 -316 q -605 -595 -584 -548 q -643 -728 -643 -683 q -639 -756 -643 -745 m 52 332 q 294 465 209 410 q 998 1194 877 850 q 1008 1222 1002 1198 q 1017 1284 1012 1240 q 1019 1302 1019 1293 q 1009 1352 1019 1328 q 969 1381 1000 1377 q 961 1381 965 1382 q 891 1344 926 1381 q 872 1321 886 1337 q 831 1274 858 1306 q 780 1215 805 1243 l 529 918 l 219 537 l 52 332 "},"8":{"x_min":9.390625,"x_max":1282.234375,"ha":1388,"o":"m 12 108 q 12 114 12 108 q 14 126 13 120 q 16 137 15 132 q 24 163 20 153 q 30 181 27 170 l 33 191 q 116 348 70 284 q 244 488 170 426 q 451 620 336 569 q 702 711 543 663 q 735 721 718 716 q 761 730 751 727 q 775 734 771 733 q 720 854 735 817 q 701 969 701 908 q 735 1106 701 1041 q 894 1251 788 1211 q 1094 1256 996 1288 q 1177 1214 1144 1237 q 1167 1255 1168 1254 q 1152 1305 1162 1280 q 1131 1347 1133 1342 q 1114 1379 1130 1348 q 1107 1393 1111 1388 q 1103 1401 1104 1398 l 1098 1410 q 1101 1428 1089 1419 q 1120 1425 1110 1435 l 1123 1420 q 1130 1408 1125 1416 q 1140 1388 1131 1406 q 1153 1365 1149 1375 l 1168 1337 q 1174 1321 1170 1334 q 1182 1301 1179 1308 l 1194 1262 q 1209 1185 1205 1211 q 1241 1140 1228 1163 q 1277 918 1296 1046 q 1263 905 1274 903 q 1252 922 1252 907 q 1210 1139 1268 1051 q 1207 1096 1210 1132 q 1133 909 1195 997 q 812 722 1063 812 q 897 474 888 572 q 810 118 918 302 q 587 -91 742 -7 q 312 -171 446 -171 q 45 -66 116 -171 q 12 108 0 2 m 37 49 q 42 14 37 37 q 52 -19 48 -7 q 68 -53 60 -40 q 312 -145 131 -145 q 576 -68 436 -145 q 786 129 718 9 q 861 304 841 225 q 870 463 882 388 q 841 588 857 545 q 785 713 825 630 q 711 686 759 703 q 463 598 558 642 q 138 332 256 502 q 91 258 111 294 q 65 202 71 222 l 59 181 l 59 181 l 58 176 q 54 162 56 173 q 48 141 50 145 q 42 111 45 133 q 38 81 39 90 q 37 49 37 72 m 726 970 q 748 861 729 903 q 803 743 764 821 q 1110 925 1045 833 q 1181 1173 1190 1038 q 1085 1229 1141 1213 q 1001 1243 1044 1242 q 862 1206 929 1243 q 756 1095 797 1170 q 726 970 724 1032 "},"R":{"x_min":-133.609375,"x_max":1696.234375,"ha":1601,"o":"m -133 -86 q -123 -75 -133 -76 q -108 -84 -109 -72 q -60 -161 -97 -133 q 30 -189 -22 -189 q 205 -115 123 -189 q 333 44 267 -61 q 457 258 372 105 l 587 484 q 534 584 534 524 q 587 670 537 649 q 644 681 613 681 q 706 672 674 681 q 870 898 791 800 q 1176 1159 1019 1081 q 1233 1183 1208 1173 q 962 1219 1097 1219 q 836 1205 901 1219 q 637 1126 720 1184 q 682 947 682 1057 q 654 833 682 886 q 567 781 628 781 q 493 813 520 781 q 466 895 465 847 q 505 1019 466 950 q 601 1131 542 1083 q 545 1179 579 1157 q 453 1223 505 1207 q 442 1239 440 1224 q 454 1247 444 1247 q 458 1247 456 1247 q 519 1223 469 1247 q 622 1146 580 1194 l 622 1147 q 763 1214 685 1190 q 962 1244 859 1244 q 1276 1197 1117 1244 q 1419 1218 1348 1218 q 1431 1218 1425 1218 q 1694 1087 1637 1216 q 1696 1081 1696 1084 q 1688 1070 1696 1074 q 1672 1076 1677 1066 q 1431 1193 1619 1193 q 1318 1182 1380 1193 q 1322 1180 1320 1181 q 1516 1047 1441 1131 q 1616 790 1616 933 q 1574 605 1616 668 q 1357 397 1508 478 q 1072 328 1229 329 q 1012 331 1065 328 q 1022 232 1022 288 q 1008 82 1022 166 l 1004 56 q 1002 45 1003 51 q 1001 35 1001 40 q 999 29 1000 31 q 999 25 999 26 q 997 13 999 23 q 994 -2 995 4 q 991 -34 991 -30 q 994 -62 991 -40 q 1001 -92 995 -73 q 1039 -144 1011 -123 q 1100 -164 1064 -164 q 1265 -82 1176 -164 q 1282 -83 1272 -75 q 1281 -101 1292 -91 q 1100 -189 1194 -189 q 1026 -165 1062 -189 q 978 -101 992 -144 q 968 -36 968 -76 q 983 86 968 13 q 994 228 994 162 q 986 335 994 286 q 811 372 892 345 q 693 417 731 398 q 607 469 661 433 q 417 136 587 437 q 222 -134 309 -55 q 30 -213 132 -214 q -73 -180 -27 -213 q -115 -137 -97 -162 q -133 -86 -133 -111 m 491 895 q 511 832 491 853 q 567 807 532 808 q 571 807 569 807 q 633 845 613 807 q 657 947 653 881 q 616 1110 657 1050 q 527 1007 563 1070 q 491 895 491 942 m 607 651 q 558 586 558 636 q 600 505 558 536 q 693 649 638 571 q 650 658 672 658 q 607 651 630 658 m 620 490 q 978 359 778 384 q 893 503 951 436 q 780 607 834 570 q 716 641 754 626 l 620 490 m 730 663 q 796 628 770 645 q 912 520 855 589 q 1005 356 980 440 q 1072 354 1064 354 q 1344 419 1218 354 q 1553 616 1492 501 q 1591 777 1591 692 q 1591 786 1591 781 q 1547 961 1589 881 q 1312 1157 1479 1088 q 1275 1170 1304 1161 q 1187 1137 1239 1160 q 982 986 1080 1083 q 730 663 869 874 "}," ":{"x_min":0,"x_max":0,"ha":305},"o":{"x_min":-26.796875,"x_max":1215.875,"ha":1201,"o":"m -25 175 q -26 193 -27 184 q -25 209 -26 201 q -25 224 -25 215 q -23 237 -24 233 q -22 248 -23 241 q -20 257 -21 254 l -18 263 q 157 536 15 397 q 407 711 280 654 q 593 760 514 757 q 619 761 606 761 q 726 745 677 761 l 747 737 q 757 732 751 735 q 764 727 763 728 l 781 719 q 788 713 784 718 q 794 707 792 709 q 800 703 796 705 q 805 699 804 701 l 812 692 l 817 687 l 821 683 l 823 680 q 823 665 827 672 q 854 645 842 661 q 869 598 869 629 q 862 551 869 578 q 774 387 844 487 q 701 295 727 324 q 918 207 794 206 q 935 207 926 207 q 1194 310 1074 213 q 1213 307 1204 318 q 1215 298 1215 302 q 1211 290 1215 294 q 958 183 1088 196 q 925 181 941 181 q 807 200 865 181 q 685 276 738 222 q 607 197 656 243 q 396 43 495 94 q 196 -13 289 -13 l 181 -13 q 11 64 64 -6 q -8 102 0 81 q -21 139 -18 126 q -25 175 -21 140 m 2 225 q 2 207 2 217 q 5 158 2 186 q 34 79 12 108 q 184 12 82 17 q 202 12 193 12 q 373 59 279 12 q 589 215 479 113 q 671 298 629 252 q 645 359 653 326 q 636 434 636 396 q 645 511 636 472 q 692 613 658 575 q 779 666 728 658 q 801 668 784 668 q 716 723 766 708 q 624 736 673 736 q 417 687 530 736 q 169 511 300 635 q 8 257 42 390 l 6 244 q 2 225 4 232 m 670 505 q 661 430 661 465 q 688 318 661 368 q 839 559 818 469 q 844 597 844 581 q 835 630 844 619 q 801 642 826 642 q 718 605 753 640 q 670 505 685 571 "},"5":{"x_min":65.75,"x_max":1382.25,"ha":1189,"o":"m 67 125 q 201 405 50 252 q 220 405 210 415 q 220 385 230 396 q 93 126 80 238 q 105 85 95 108 q 124 53 112 68 q 144 30 138 36 q 161 17 152 22 l 166 11 q 366 -47 264 -47 q 704 110 540 -47 q 942 437 839 236 q 987 562 970 494 q 978 791 1020 701 q 812 912 936 882 q 709 912 765 923 q 607 878 654 903 q 520 830 552 850 q 458 787 474 799 q 433 766 437 770 l 412 784 l 740 1207 q 766 1233 752 1225 q 859 1236 803 1254 q 1195 1220 1001 1190 q 1280 1237 1236 1226 q 1341 1255 1308 1244 l 1362 1262 q 1380 1254 1374 1268 q 1371 1236 1386 1241 q 1201 1193 1330 1216 q 1033 1180 1102 1179 q 849 1209 933 1182 q 797 1215 813 1220 q 771 1203 779 1209 q 763 1193 763 1197 l 762 1191 l 495 846 q 548 878 506 853 q 677 932 616 915 q 817 939 759 953 q 1005 803 955 908 q 1030 677 1030 749 q 1013 553 1030 620 l 1001 512 q 989 478 993 483 q 980 451 984 464 q 972 433 978 447 l 967 425 q 959 409 964 422 q 936 367 952 392 q 902 310 914 328 q 724 90 810 171 q 463 -59 595 -28 q 366 -72 413 -71 q 152 -9 255 -72 q 130 5 145 -6 q 95 52 119 14 q 67 125 72 86 "},"7":{"x_min":45.25,"x_max":1090.015625,"ha":647,"o":"m 49 -126 q 125 -33 57 -117 l 330 214 l 582 518 q 934 981 807 798 q 1039 1148 1005 1086 q 1064 1221 1064 1197 q 1041 1217 1054 1221 q 804 1173 937 1181 q 563 1179 685 1166 q 302 1218 413 1191 q 291 1233 288 1219 q 308 1242 293 1245 l 314 1241 q 335 1238 321 1240 q 347 1236 337 1238 q 363 1233 356 1235 q 382 1231 370 1232 q 405 1228 393 1230 q 420 1226 410 1227 q 437 1224 429 1225 q 451 1221 444 1223 q 478 1218 459 1220 q 506 1214 496 1215 q 566 1205 549 1207 q 1031 1242 853 1177 q 1085 1236 1070 1256 q 956 965 1113 1193 q 603 500 832 788 l 447 312 l 301 135 l 182 -7 l 99 -109 q 69 -145 69 -144 q 58 -149 65 -149 l 50 -147 q 49 -126 40 -137 "},"K":{"x_min":-408.296875,"x_max":1747.140625,"ha":1246,"o":"m -408 143 q -401 204 -408 162 q -385 212 -398 215 q -376 198 -373 210 q -383 143 -383 173 q -352 54 -383 88 q -257 10 -320 19 q -227 9 -250 9 q -96 47 -161 9 q 35 160 -32 86 q 331 536 116 246 q 348 559 341 550 q 360 575 355 568 l 413 647 l 408 649 q 396 658 404 652 q 375 673 383 665 q 368 679 373 674 q 358 689 362 685 q 344 711 348 698 q 339 739 339 728 q 368 797 339 774 q 434 820 398 821 q 526 800 480 820 q 669 983 624 931 q 866 1193 773 1109 q 487 1273 672 1231 q 320 1296 389 1296 q 208 1272 248 1296 q 169 1207 168 1245 q 158 1193 170 1193 q 144 1204 145 1190 q 156 1255 141 1230 q 226 1306 179 1292 q 320 1321 263 1320 q 493 1298 394 1321 q 872 1216 803 1230 q 891 1212 878 1214 q 983 1279 929 1243 q 1209 1351 1097 1346 q 1309 1308 1285 1351 q 1322 1259 1321 1288 q 1311 1209 1322 1230 q 1164 1146 1275 1146 q 1137 1147 1151 1146 q 898 1186 1070 1151 q 790 1083 869 1162 q 550 788 701 990 q 600 759 581 773 q 720 648 669 712 q 999 751 849 672 q 1359 1003 1171 843 l 1407 1045 l 1462 1094 q 1566 1167 1529 1151 q 1637 1184 1604 1184 q 1683 1176 1661 1184 q 1729 1138 1712 1166 q 1747 1077 1747 1109 q 1736 1023 1747 1052 q 1720 1016 1732 1015 q 1713 1033 1711 1018 q 1722 1077 1722 1058 q 1673 1154 1722 1130 q 1637 1159 1656 1159 q 1578 1146 1608 1159 q 1512 1102 1546 1129 q 1436 1037 1496 1091 l 1375 984 q 1009 729 1189 823 q 739 626 868 652 q 819 448 803 543 q 828 360 827 402 q 812 213 828 298 q 798 92 798 128 q 834 -4 798 29 q 901 -32 863 -32 q 912 -31 906 -32 q 999 -5 961 -27 q 1069 48 1038 17 q 1087 47 1080 55 q 1087 30 1096 39 q 1008 -27 1052 -4 q 910 -56 959 -52 q 900 -57 905 -57 q 817 -22 853 -57 q 773 92 773 17 q 787 218 773 132 q 803 360 803 303 q 796 444 803 405 q 711 620 779 531 q 602 611 663 611 q 437 637 515 611 q 380 559 434 633 q 127 225 149 249 q -84 26 5 78 q -227 -15 -152 -14 q -259 -13 -252 -15 q -370 35 -328 -5 q -408 143 -408 78 m 364 739 q 429 668 364 697 l 511 779 q 434 797 470 797 q 385 781 409 797 q 364 739 364 768 m 453 658 q 602 636 520 636 q 693 642 634 636 q 585 739 644 698 q 534 769 554 761 l 453 658 m 923 1207 q 1140 1172 1097 1174 q 1164 1171 1152 1171 q 1279 1207 1242 1171 q 1298 1249 1294 1224 q 1299 1260 1299 1255 q 1289 1296 1299 1277 q 1209 1326 1269 1325 q 995 1256 1104 1323 q 923 1207 973 1243 "},",":{"x_min":85.984375,"x_max":252.484375,"ha":280,"o":"m 87 -65 q 95 -50 82 -55 q 185 -3 152 -34 q 173 -5 182 -5 q 117 17 139 -5 q 95 72 95 39 q 117 127 95 106 q 173 151 141 151 q 230 127 206 151 q 252 72 252 105 q 245 40 252 53 q 101 -75 214 -42 l 97 -75 q 87 -65 88 -74 "},"d":{"x_min":-41,"x_max":1540.09375,"ha":1226,"o":"m -39 161 q -41 180 -40 171 q 155 490 -41 322 q 680 727 434 727 q 895 625 862 727 q 900 590 900 609 q 886 522 900 558 l 1100 808 q 1304 1080 1211 961 q 1430 1219 1398 1194 q 1482 1241 1458 1241 q 1503 1237 1492 1241 q 1522 1223 1515 1232 q 1535 1205 1533 1209 l 1538 1197 q 1540 1179 1540 1188 q 1398 952 1540 1099 q 1059 622 1287 831 l 892 494 q 675 139 760 295 q 657 77 657 103 q 666 46 657 59 q 721 27 680 27 q 811 41 756 27 q 1096 194 948 75 q 1226 306 1179 259 q 1244 307 1236 316 q 1244 289 1252 298 q 1112 174 1186 231 q 818 17 952 53 q 723 2 764 2 q 645 30 669 2 q 636 49 641 35 q 632 71 632 59 q 634 93 632 79 l 639 114 l 644 131 q 647 138 644 134 q 650 143 650 142 l 654 148 q 773 344 707 245 q 671 245 726 295 q 435 58 546 127 q 189 -22 304 -22 q 34 28 99 -22 q -39 161 -30 78 m -15 165 q 49 47 -8 90 q 190 3 108 3 q 654 263 372 3 q 875 588 875 471 q 870 617 875 604 q 680 702 845 702 q 172 470 446 702 q -15 183 -15 314 q -15 165 -15 174 m 957 580 l 1035 648 q 1380 969 1295 877 q 1515 1180 1515 1111 q 1513 1191 1515 1186 q 1491 1215 1509 1211 q 1484 1216 1488 1216 q 1443 1198 1468 1216 q 1320 1065 1419 1179 q 1117 794 1224 943 l 957 580 "},"E":{"x_min":144,"x_max":1157.09375,"ha":1175,"o":"m 149 389 q 303 663 177 558 q 527 778 412 754 q 506 905 506 841 q 526 1031 506 967 q 420 1240 436 1126 q 431 1255 417 1254 q 445 1244 442 1255 q 536 1056 464 1137 q 591 1156 553 1102 q 717 1272 640 1224 q 797 1312 766 1299 q 858 1331 830 1324 q 881 1336 878 1336 q 947 1340 916 1340 q 1111 1287 1055 1340 q 1157 1175 1153 1244 q 1157 1167 1157 1171 q 1123 1059 1157 1105 q 993 953 1076 991 q 824 915 913 915 q 547 1011 656 921 q 531 897 531 950 q 554 782 531 835 q 637 789 589 789 q 683 787 658 789 q 768 756 736 780 q 794 711 794 737 q 790 689 794 701 q 739 652 779 656 q 719 650 729 650 q 656 661 687 650 q 590 695 617 675 q 540 754 555 723 q 317 644 412 728 q 173 385 201 545 q 169 318 169 350 q 218 143 169 210 q 347 41 268 76 q 511 5 431 5 q 811 86 676 5 q 1016 312 947 168 q 1033 319 1022 324 q 1040 302 1046 313 q 822 63 957 145 q 511 -19 684 -19 q 201 124 304 -11 q 144 317 144 203 q 149 389 144 352 m 555 1038 q 824 941 661 941 q 985 975 921 942 q 1102 1074 1052 1010 q 1132 1175 1132 1111 q 1094 1269 1132 1233 q 951 1314 1049 1314 q 879 1309 918 1314 q 732 1251 805 1299 q 611 1140 658 1202 q 555 1038 580 1096 m 567 757 q 606 714 580 733 q 698 677 647 684 q 717 676 708 676 q 766 696 754 676 q 769 710 769 704 q 745 743 769 730 q 680 762 715 761 q 646 763 663 763 q 567 757 607 763 "},"Y":{"x_min":-114.09375,"x_max":1904.890625,"ha":1278,"o":"m -113 -196 q -104 -180 -115 -185 q 13 -111 -47 -169 l 33 -91 q 1 40 1 -23 q 27 156 1 111 q 96 202 56 202 q 148 174 128 202 q 166 107 168 145 q 63 -95 166 15 q 162 -198 96 -156 q 387 -257 260 -257 q 605 -196 502 -257 q 775 -29 705 -136 l 959 263 q 934 240 940 244 q 661 128 802 128 q 516 156 583 128 q 402 258 437 192 q 376 375 376 307 q 461 651 376 491 q 649 931 548 818 q 872 1144 746 1040 q 648 1201 762 1160 q 565 1237 634 1207 q 472 1275 511 1261 q 392 1301 412 1296 q 218 1326 295 1326 q 104 1309 155 1326 q 29 1261 56 1294 q -1 1179 -1 1224 q 152 1053 -1 1083 q 165 1041 164 1053 q 151 1029 164 1029 l 144 1030 q 123 1034 138 1032 q 95 1040 103 1037 q 8 1091 45 1053 q -26 1179 -26 1126 q 62 1321 -26 1273 q 212 1351 124 1351 q 398 1325 294 1351 q 480 1298 446 1313 q 575 1260 547 1272 l 657 1224 q 900 1166 779 1178 q 927 1190 904 1167 q 959 1216 943 1203 q 969 1225 962 1219 q 988 1240 976 1230 q 1024 1265 995 1245 q 1037 1273 1028 1268 q 1057 1284 1045 1277 q 1093 1300 1066 1289 q 1127 1308 1108 1305 q 1144 1309 1136 1309 q 1201 1287 1179 1309 q 1223 1237 1223 1265 q 1222 1223 1223 1230 q 1179 1163 1216 1186 q 1047 1133 1133 1134 q 1018 1133 1032 1132 q 906 1140 952 1133 q 677 925 774 1034 q 483 638 571 807 q 401 375 401 487 q 425 269 401 314 q 486 202 448 227 q 661 153 555 153 q 918 259 796 153 q 1072 432 996 327 l 1284 741 q 1460 951 1367 859 q 1626 1089 1553 1041 q 1761 1165 1705 1140 q 1854 1201 1829 1195 q 1890 1208 1886 1208 q 1904 1198 1903 1209 q 1892 1183 1907 1187 l 1871 1178 q 1844 1170 1847 1172 q 1711 1110 1787 1153 q 1305 727 1491 986 l 1155 512 q 1093 417 1121 457 q 796 -41 907 141 q 619 -216 722 -152 q 387 -282 513 -281 q 149 -221 252 -282 q 46 -115 84 -181 q -10 -164 18 -143 q -99 -205 -53 -197 q -113 -196 -113 -206 m 26 38 q 52 -71 26 -21 q 141 107 141 29 q 130 155 141 130 q 96 177 121 177 q 50 144 70 177 q 26 38 27 112 m 935 1163 q 1028 1159 987 1159 q 1165 1184 1123 1159 q 1198 1229 1197 1201 q 1194 1248 1198 1238 q 1142 1284 1181 1283 q 1130 1283 1137 1284 q 1076 1265 1108 1281 q 1030 1239 1044 1249 q 982 1199 1021 1232 l 935 1163 "},"\"":{"x_min":64.515625,"x_max":457.09375,"ha":564,"o":"m 66 705 q 69 722 61 715 q 270 982 236 851 q 276 1008 273 991 q 278 1019 276 1010 q 281 1032 281 1028 l 281 1052 q 279 1069 281 1065 q 278 1082 278 1073 q 277 1086 278 1083 l 276 1089 l 275 1092 q 283 1107 272 1103 q 298 1099 295 1109 q 302 1083 301 1096 q 306 1040 305 1063 q 295 978 306 1014 q 234 851 280 918 q 85 703 177 770 q 80 700 83 703 l 78 700 q 66 705 70 700 m 218 705 q 221 722 213 715 q 422 982 388 851 q 429 1008 427 1003 q 432 1032 432 1025 l 432 1052 q 430 1069 432 1065 q 429 1082 429 1074 q 428 1086 429 1083 l 427 1089 l 426 1092 q 434 1107 423 1103 q 450 1099 445 1108 q 454 1083 453 1096 q 457 1040 457 1063 q 446 978 457 1014 q 385 851 431 918 q 236 703 329 770 q 232 700 233 703 q 229 700 230 700 q 218 705 222 700 "},"´":{"x_min":19.171875,"x_max":685.546875,"ha":700,"o":"m 19 1138 q 33 1149 21 1151 q 355 1175 188 1129 q 665 1312 520 1220 q 683 1309 676 1319 q 678 1292 689 1300 q 29 1124 358 1089 q 19 1138 16 1125 "}," ":{"x_min":0,"x_max":0,"ha":511},"|":{"x_min":42.640625,"x_max":1198.734375,"ha":1155,"o":"m 46 -293 l 1175 1471 q 1193 1473 1180 1480 q 1195 1456 1202 1468 l 66 -307 q 55 -312 62 -312 q 48 -311 50 -312 q 46 -293 37 -302 "}," ":{"x_min":0,"x_max":0,"ha":305}," ":{"x_min":0,"x_max":0,"ha":1535},"b":{"x_min":-7,"x_max":1037.9375,"ha":945,"o":"m -1 164 q -7 214 -7 187 q 69 466 -7 318 q 301 823 142 612 q 554 1127 420 978 q 740 1322 672 1260 q 871 1410 818 1392 q 897 1415 885 1415 q 931 1400 917 1415 q 953 1346 953 1379 q 934 1275 953 1315 q 918 1243 927 1258 q 900 1215 902 1219 q 893 1203 893 1207 q 430 648 726 962 l 166 381 q 25 275 109 324 q 18 215 18 242 q 22 173 18 193 q 29 147 22 170 q 57 91 35 129 q 110 33 76 59 q 229 1 158 0 q 316 11 269 1 q 555 164 448 43 q 666 362 636 253 q 613 413 637 381 q 566 512 574 462 q 564 537 564 525 q 603 608 564 584 q 639 620 622 620 q 681 601 661 620 q 710 522 707 577 q 711 492 711 507 q 696 373 711 429 q 814 346 756 346 q 865 351 839 346 q 1016 430 947 369 q 1035 429 1027 436 q 1037 420 1037 424 q 1033 411 1037 415 q 875 328 955 344 q 805 320 839 320 q 689 348 740 320 q 574 147 656 237 q 322 -11 460 22 q 230 -24 274 -24 q 96 12 154 -24 q -1 164 15 63 m 33 310 q 149 400 95 348 l 181 431 l 280 532 l 412 665 q 872 1217 701 970 l 879 1226 q 900 1263 885 1237 q 919 1304 912 1285 q 928 1349 928 1326 q 915 1382 928 1370 q 896 1390 907 1390 q 754 1303 853 1390 q 564 1114 692 1250 q 321 808 441 972 q 33 310 78 502 m 589 516 q 632 429 596 474 q 673 388 650 405 q 686 495 686 445 q 685 522 686 509 q 672 572 682 554 q 637 594 660 594 q 597 571 606 594 q 589 531 589 552 q 589 516 588 524 "},"q":{"x_min":-5,"x_max":1141.296875,"ha":1107,"o":"m -3 182 q -5 205 -5 193 q 192 512 -5 346 q 714 749 472 749 q 940 626 911 749 q 944 597 944 613 q 880 442 944 532 l 945 484 q 1127 549 1041 538 q 1141 538 1141 550 q 1130 523 1142 524 q 807 355 984 504 q 749 307 800 350 l 684 239 l 657 209 l 651 202 q 653 194 653 201 q 584 -119 639 44 q 461 -400 536 -262 q 317 -617 398 -515 q 172 -762 240 -717 q 82 -799 118 -798 q 15 -755 33 -796 q 6 -721 6 -743 q 7 -702 6 -712 q 16 -655 11 -670 q 24 -633 20 -638 q 376 -108 98 -479 l 609 189 q 465 86 531 126 q 218 0 326 0 q 68 50 133 0 q -3 182 4 99 m 21 185 q 85 69 29 111 q 218 25 142 24 q 335 46 274 25 q 464 113 390 65 q 575 193 522 152 q 688 288 632 239 q 702 299 691 290 q 719 314 712 308 q 752 341 751 340 q 919 597 919 497 q 916 620 919 609 q 714 723 893 723 q 207 493 477 723 q 51 314 97 400 q 20 204 20 257 q 21 185 20 195 m 39 -746 q 86 -773 57 -773 q 90 -773 88 -773 q 157 -743 119 -772 q 298 -597 221 -693 q 440 -387 376 -500 q 626 170 592 -110 q 49 -643 156 -422 q 31 -710 31 -681 q 39 -746 30 -729 "},"ﬂ":{"x_min":-665.015625,"x_max":1655.8125,"ha":1436,"o":"m -658 -766 q -624 -586 -681 -719 q -564 -468 -588 -504 q -4 302 -459 -266 l 198 553 q 872 1361 659 1122 q 975 1404 923 1414 q 1032 1361 1015 1397 q 1043 1287 1047 1329 q 1032 1219 1039 1248 q 1021 1186 1025 1191 q 795 837 963 1015 q 311 442 615 644 q 19 285 213 377 l -99 139 q -1 75 -55 95 q 507 143 195 1 q 747 297 635 203 q 765 296 758 306 q 763 278 772 285 q 517 120 648 182 q -12 55 190 -23 q -94 106 -62 74 q -169 -333 -75 -112 q -405 -693 -259 -552 q -600 -799 -516 -799 q -658 -766 -645 -798 m -635 -757 q -614 -772 -629 -767 q -425 -675 -543 -789 q -190 -319 -283 -541 q -121 111 -98 -100 q -543 -480 -458 -318 q -602 -596 -581 -549 q -635 -757 -655 -715 m 55 330 q 297 463 211 408 q 998 1194 878 849 q 1008 1222 1002 1198 q 1018 1284 1012 1240 q 1009 1351 1022 1319 q 970 1380 1000 1376 q 892 1344 931 1384 q 873 1321 887 1337 q 833 1274 859 1305 q 782 1215 807 1243 l 531 915 l 222 534 l 55 330 m 641 196 q 986 822 719 418 l 1102 985 l 1189 1108 q 1220 1151 1216 1146 q 1238 1174 1220 1154 l 1291 1231 q 1362 1297 1327 1268 q 1488 1382 1434 1360 q 1612 1383 1563 1415 q 1655 1308 1651 1358 q 1534 1032 1663 1212 q 1272 744 1419 876 q 736 343 1099 592 q 667 185 698 268 q 662 172 665 181 q 658 160 660 164 q 657 108 654 146 q 677 50 659 70 q 873 26 738 -14 q 1166 143 1040 76 q 1433 319 1293 211 q 1451 318 1444 325 q 1449 299 1459 308 q 1173 118 1304 188 q 878 1 1044 49 q 776 -12 836 -12 q 658 33 697 -12 q 641 196 606 91 m 758 389 q 1255 763 1115 638 q 1515 1047 1406 898 q 1630 1305 1637 1213 q 1598 1362 1627 1344 q 1379 1279 1528 1407 q 1336 1239 1351 1253 l 1298 1201 l 1268 1169 q 1247 1146 1261 1162 l 1240 1136 l 1208 1091 l 1122 969 l 1007 808 q 758 389 849 566 "},"z":{"x_min":-361.828125,"x_max":1017.9375,"ha":941,"o":"m -361 -728 q -254 -550 -353 -657 q -21 -342 -173 -463 q 373 -76 173 -194 q 360 -27 372 -51 q 295 38 342 9 q 222 75 249 66 q 184 83 192 83 l 145 90 l 180 106 q 207 120 181 106 q 285 165 228 131 q 381 226 328 190 q 625 504 587 371 q 633 557 633 530 q 616 634 633 595 q 527 712 588 699 q 496 714 512 715 q 409 699 457 714 q 302 653 344 676 q 257 625 259 628 q 146 539 194 585 q 127 538 140 530 q 127 555 122 547 q 243 645 177 605 q 494 740 392 740 q 533 735 514 740 q 639 644 607 719 q 658 557 658 600 q 649 497 658 527 q 396 205 607 354 q 222 99 322 153 q 383 -17 343 62 q 397 -62 394 -38 q 549 19 488 -10 q 653 75 574 31 q 747 130 718 111 l 828 188 l 896 237 l 950 275 l 983 302 l 995 314 q 1012 312 1003 322 q 1017 305 1017 309 q 1012 295 1017 301 q 952 245 1000 283 q 787 128 906 209 q 560 -2 678 55 q 399 -89 477 -43 q 372 -190 398 -139 q 104 -560 294 -351 q -236 -817 -98 -781 q -271 -822 -254 -822 q -329 -804 -305 -822 q -361 -737 -361 -779 q -361 -728 -361 -733 m -336 -731 q -309 -786 -337 -769 q -268 -797 -290 -797 q -241 -793 -255 -797 q 86 -544 -116 -762 q 349 -178 270 -340 q 373 -105 369 -137 q -5 -362 161 -233 q -236 -569 -152 -479 q -336 -731 -329 -670 "},"™":{"x_min":-144,"x_max":2948.84375,"ha":2771,"o":"m 348 116 q 390 266 348 200 q 407 269 398 277 q 412 253 415 264 q 373 117 373 197 q 416 -8 373 37 q 563 -72 463 -65 l 578 -72 q 739 -34 659 -72 q 904 74 823 4 q 1267 491 1049 197 q 1585 902 1445 731 q 1899 1208 1766 1118 q 2093 1281 2006 1282 q 2154 1220 2154 1278 q 2128 1128 2154 1186 q 1994 785 2048 943 q 1917 466 1942 632 q 2218 828 2055 658 q 2533 1110 2379 994 q 2767 1249 2667 1209 q 2875 1273 2830 1273 q 2934 1248 2921 1270 q 2944 1214 2944 1233 q 2912 1126 2944 1178 q 2662 665 2780 933 q 2482 13 2494 294 l 2482 12 q 2482 -5 2482 3 q 2493 -91 2482 -55 q 2548 -190 2509 -149 q 2713 -251 2616 -251 q 2869 -191 2800 -251 q 2925 -125 2910 -155 q 2940 -120 2931 -115 q 2948 -130 2948 -124 q 2945 -138 2948 -133 l 2942 -142 q 2936 -153 2940 -147 q 2931 -161 2935 -156 q 2925 -169 2926 -166 q 2920 -174 2922 -172 q 2916 -179 2918 -176 q 2910 -187 2914 -183 q 2889 -206 2898 -199 q 2713 -277 2811 -276 q 2532 -208 2604 -277 q 2482 -136 2500 -179 q 2457 15 2457 -72 q 2639 675 2469 298 q 2891 1139 2762 952 l 2908 1173 q 2919 1208 2917 1192 q 2912 1237 2921 1228 q 2877 1248 2901 1248 q 2778 1226 2831 1248 q 2655 1163 2728 1206 q 2362 933 2519 1080 q 1909 412 2111 702 q 1897 204 1897 306 q 1899 132 1897 168 q 1889 38 1899 76 q 1841 -49 1877 -20 q 1774 -73 1813 -73 q 1719 -52 1742 -73 q 1686 30 1686 -20 q 1690 66 1686 47 q 1769 238 1698 127 q 1884 422 1796 287 q 1962 769 1907 601 q 2106 1138 2015 931 q 2129 1220 2129 1188 q 2093 1256 2126 1256 q 1914 1187 2015 1256 q 1710 1007 1823 1127 q 1288 476 1567 853 q 1007 137 1125 256 q 749 -58 868 -1 q 578 -98 661 -98 l 562 -98 q 396 -26 451 -91 q 348 116 348 30 m 1713 64 q 1711 35 1711 48 q 1733 -32 1711 -10 q 1774 -48 1752 -48 q 1826 -30 1806 -48 q 1855 15 1845 -13 q 1874 132 1874 57 q 1873 182 1873 157 q 1879 368 1873 272 q 1789 226 1827 291 q 1713 64 1722 120 m -144 20 q -137 80 -144 41 q -121 89 -135 92 q -112 76 -109 88 q -118 20 -118 37 q -88 -69 -118 -34 q 36 -112 -41 -112 q 299 37 162 -108 q 595 413 387 131 q 613 435 606 426 q 626 452 620 444 q 946 858 820 718 q 1097 1008 1015 936 q 783 1108 947 1047 q 586 1145 683 1144 q 340 1080 455 1145 q 308 1060 318 1067 q 295 1051 304 1057 q 282 1041 286 1044 q 273 1034 279 1039 q 264 1026 266 1029 q 256 1019 260 1022 q 250 1014 253 1016 q 244 1010 246 1010 q 226 1008 236 1003 q 226 1026 218 1016 q 322 1099 258 1059 q 586 1170 441 1170 q 791 1131 689 1170 q 1121 1029 961 1071 q 1599 1235 1369 1235 q 1669 1231 1645 1232 q 1726 1216 1697 1228 q 1777 1182 1761 1203 q 1801 1117 1801 1151 q 1798 1094 1801 1105 q 1750 1016 1787 1047 q 1497 949 1669 949 q 1127 1001 1342 949 l 1081 959 q 922 789 996 878 q 793 625 820 662 l 644 436 q 385 108 408 132 q 290 -13 341 48 q 177 -97 250 -54 q 36 -138 109 -137 q -106 -86 -63 -138 q -144 20 -144 -44 m 1150 1020 q 1497 974 1352 973 q 1507 974 1502 974 q 1731 1033 1656 974 q 1773 1098 1765 1061 q 1776 1115 1776 1107 q 1757 1166 1776 1140 q 1598 1210 1720 1205 q 1150 1020 1378 1206 "},"~":{"x_min":49,"x_max":555.09375,"ha":611,"o":"m 49 1188 l 49 1213 q 51 1234 49 1222 q 54 1249 53 1243 l 55 1255 q 74 1264 60 1266 q 82 1247 84 1260 q 77 1231 81 1246 q 74 1192 73 1214 q 86 1153 76 1167 q 142 1131 103 1131 q 222 1154 179 1131 q 294 1206 257 1174 q 367 1250 323 1231 q 450 1258 408 1269 q 551 1175 529 1240 q 555 1116 555 1163 q 539 1105 553 1103 q 528 1121 526 1107 q 530 1132 530 1122 q 528 1155 530 1146 q 519 1185 527 1165 q 492 1214 513 1197 q 444 1234 475 1226 q 352 1211 402 1243 q 317 1189 334 1199 q 286 1170 301 1179 q 249 1143 272 1160 q 141 1106 195 1106 q 64 1139 86 1106 q 53 1161 54 1154 q 49 1188 49 1175 "},"[":{"x_min":30.828125,"x_max":1278.515625,"ha":732,"o":"m 32 -299 l 1057 1277 q 1068 1283 1063 1283 l 1266 1283 q 1278 1270 1278 1283 q 1266 1257 1278 1257 l 1074 1257 l 66 -293 l 271 -293 q 284 -306 284 -293 q 271 -319 284 -319 l 44 -319 q 32 -312 37 -319 q 32 -299 28 -305 "},"L":{"x_min":17.96875,"x_max":1847.09375,"ha":1155,"o":"m 25 98 q 78 158 39 137 q 162 179 116 179 q 391 93 287 175 l 446 35 q 526 104 487 67 q 890 516 677 232 l 1034 716 l 1183 923 q 1401 1161 1301 1078 q 1321 1190 1380 1168 q 1197 1209 1256 1209 q 1153 1208 1167 1209 q 1113 1200 1139 1206 q 1096 1194 1107 1198 q 1081 1189 1085 1190 q 1053 1179 1059 1182 q 1030 1172 1035 1174 l 1015 1166 l 1010 1164 q 992 1168 999 1158 q 996 1186 984 1179 q 1022 1199 1001 1188 q 1094 1222 1043 1209 q 1197 1235 1144 1234 q 1329 1214 1263 1235 q 1424 1180 1383 1196 q 1483 1218 1448 1197 q 1724 1296 1595 1289 q 1730 1296 1727 1296 q 1831 1251 1799 1296 q 1847 1199 1847 1226 q 1840 1159 1847 1179 q 1780 1100 1823 1120 q 1685 1083 1742 1083 q 1672 1083 1679 1083 q 1517 1119 1602 1090 l 1428 1151 q 1297 1024 1366 1103 q 1178 876 1231 947 l 1037 679 l 909 500 q 633 167 748 286 q 463 18 545 76 l 476 4 q 482 -2 478 2 q 488 -7 486 -6 q 561 -84 527 -51 q 644 -159 591 -115 q 763 -238 690 -196 q 1010 -312 895 -312 q 1168 -242 1124 -311 q 1186 -179 1185 -211 q 1156 -95 1186 -137 q 1121 -60 1135 -69 q 1120 -42 1114 -52 q 1136 -39 1125 -33 l 1139 -41 q 1141 -43 1140 -41 q 1145 -47 1141 -45 l 1153 -55 l 1162 -64 l 1174 -79 q 1211 -179 1211 -129 q 1190 -255 1211 -217 q 1010 -338 1136 -338 q 750 -261 885 -338 q 520 -82 625 -190 l 442 4 q 379 -33 430 -5 q 221 -75 293 -74 q 115 -58 165 -75 q 34 1 65 -41 q 18 56 17 25 q 25 98 18 75 m 43 54 q 104 -26 48 -1 q 221 -50 155 -50 q 368 -10 289 -50 q 426 22 397 4 q 374 71 386 62 q 162 154 271 154 q 76 127 108 151 q 43 54 43 103 m 1452 1170 q 1463 1166 1455 1169 q 1489 1156 1471 1163 q 1526 1143 1508 1150 q 1674 1109 1603 1116 q 1683 1109 1678 1109 q 1798 1145 1766 1109 q 1822 1196 1822 1170 q 1808 1237 1822 1215 q 1725 1270 1781 1270 q 1497 1197 1610 1267 l 1452 1170 "}," ":{"x_min":0,"x_max":0,"ha":570},"%":{"x_min":134.46875,"x_max":978.3125,"ha":1155,"o":"m 137 -27 l 952 1243 q 972 1247 961 1252 q 976 1227 981 1241 l 159 -42 q 147 -47 155 -46 q 142 -45 143 -47 q 137 -27 129 -39 m 442 1000 q 400 1101 400 1042 q 442 1202 400 1159 q 543 1244 484 1244 q 645 1202 604 1244 q 687 1101 687 1160 q 645 999 687 1041 q 543 958 604 958 q 442 1000 484 958 m 453 -2 q 412 98 412 38 q 453 199 412 158 q 555 241 495 241 q 656 199 614 241 q 698 98 698 158 q 656 -2 698 38 q 555 -44 614 -44 q 453 -2 495 -44 "},"P":{"x_min":-37,"x_max":1793.734375,"ha":1669,"o":"m -37 -37 q -27 -26 -37 -28 q -11 -35 -16 -21 q 47 -117 0 -90 q 134 -138 86 -138 q 156 -138 145 -138 q 304 -66 235 -127 q 432 92 368 -8 q 561 317 456 128 q 710 573 647 475 q 967 948 866 822 q 1273 1208 1118 1132 q 1330 1232 1287 1216 q 1194 1262 1273 1252 q 1084 1269 1134 1269 q 1059 1268 1071 1269 q 734 1176 882 1268 q 770 1086 762 1135 q 779 997 779 1036 q 751 879 779 922 q 667 832 721 832 q 659 832 663 832 q 589 865 611 835 q 566 945 565 897 q 604 1069 566 1002 q 700 1181 639 1132 q 644 1228 673 1212 q 550 1271 601 1254 q 542 1286 534 1274 q 553 1297 543 1297 q 557 1297 555 1297 q 616 1273 580 1291 q 719 1195 681 1240 l 721 1195 q 1060 1294 869 1293 q 1371 1246 1211 1294 q 1529 1268 1447 1268 q 1791 1136 1730 1268 q 1793 1129 1793 1132 q 1786 1120 1793 1123 q 1769 1126 1774 1115 q 1675 1216 1742 1186 q 1540 1243 1614 1243 q 1529 1243 1534 1243 q 1413 1231 1460 1240 q 1419 1228 1415 1230 q 1426 1225 1423 1227 q 1433 1222 1428 1224 q 1438 1220 1437 1220 q 1640 1069 1574 1161 q 1736 807 1736 951 q 1660 565 1736 675 q 1462 387 1585 454 q 1249 330 1358 330 q 1215 331 1232 330 q 969 426 1086 340 q 915 473 937 451 q 878 511 887 501 l 867 525 q 870 543 859 534 q 887 540 878 551 q 912 511 899 523 q 984 447 948 475 q 1207 357 1086 370 q 1246 355 1226 355 q 1449 407 1347 355 q 1637 574 1564 468 q 1711 806 1711 682 q 1671 976 1711 888 q 1428 1195 1597 1125 q 1370 1219 1411 1202 q 1284 1186 1323 1207 q 1078 1035 1177 1133 q 730 561 942 898 l 658 434 l 579 296 l 516 186 q 320 -84 399 -16 q 159 -162 246 -149 q 132 -164 145 -164 q 36 -137 82 -164 q -14 -93 8 -120 q -37 -37 -37 -66 m 591 945 q 659 857 591 863 q 666 857 663 857 q 741 917 721 857 q 754 997 754 947 q 745 1082 754 1033 q 715 1161 740 1124 q 626 1057 657 1115 q 591 945 591 994 "},"_":{"x_min":18.3125,"x_max":883.390625,"ha":903,"o":"m 30 0 q 18 12 18 0 q 30 25 18 25 l 870 25 q 883 12 883 25 q 870 0 883 0 l 30 0 "},"+":{"x_min":153.953125,"x_max":1019.375,"ha":1155,"o":"m 166 510 q 153 522 153 510 q 166 535 153 535 l 1007 535 q 1019 522 1019 535 q 1007 510 1019 510 l 166 510 m 273 101 l 796 904 q 812 906 802 915 q 816 890 822 900 l 294 87 q 283 82 288 82 l 280 82 q 276 84 277 83 q 273 101 266 91 "},"‑":{"x_min":65.109375,"x_max":930.515625,"ha":993,"o":"m 78 421 q 65 433 65 421 q 78 446 65 446 l 918 446 q 930 433 930 446 q 918 421 930 421 l 78 421 "},"'":{"x_min":370.1875,"x_max":586.09375,"ha":336,"o":"m 372 796 l 561 1178 q 578 1183 567 1190 q 584 1166 589 1179 l 394 784 q 382 778 390 778 q 377 779 378 778 q 372 796 366 786 "}," ":{"x_min":0,"x_max":0,"ha":1535},"T":{"x_min":-144,"x_max":1801.09375,"ha":1116,"o":"m -144 20 q -137 80 -144 41 q -121 89 -135 92 q -112 76 -109 88 q -118 20 -118 37 q -88 -69 -118 -34 q 36 -112 -41 -112 q 299 37 162 -108 q 595 413 387 131 q 613 435 606 426 q 626 452 620 444 q 946 858 820 718 q 1097 1008 1015 936 q 783 1108 947 1047 q 586 1145 683 1144 q 340 1080 455 1145 q 308 1060 318 1067 q 295 1051 304 1057 q 282 1041 286 1044 q 273 1034 279 1039 q 264 1026 266 1029 q 256 1019 260 1022 q 250 1014 253 1016 q 244 1010 246 1010 q 226 1008 236 1003 q 226 1026 218 1016 q 322 1099 258 1059 q 586 1170 441 1170 q 791 1131 689 1170 q 1121 1029 961 1071 q 1599 1235 1369 1235 q 1669 1231 1645 1232 q 1726 1216 1697 1228 q 1777 1182 1761 1203 q 1801 1117 1801 1151 q 1798 1094 1801 1105 q 1750 1016 1787 1047 q 1497 949 1669 949 q 1127 1001 1342 949 l 1081 959 q 922 789 996 878 q 793 625 820 662 l 644 436 q 385 108 408 132 q 290 -13 341 48 q 177 -97 250 -54 q 36 -138 109 -137 q -106 -86 -63 -138 q -144 20 -144 -44 m 1150 1020 q 1497 974 1352 973 q 1507 974 1502 974 q 1731 1033 1656 974 q 1773 1098 1765 1061 q 1776 1115 1776 1107 q 1757 1166 1776 1140 q 1598 1210 1720 1205 q 1150 1020 1378 1206 "},"j":{"x_min":-928,"x_max":457.09375,"ha":440,"o":"m -924 -761 q -928 -733 -928 -747 q -891 -634 -928 -685 q -672 -422 -814 -527 q -312 -194 -543 -331 q -116 132 -275 -136 l 59 426 l 196 653 q 241 736 237 725 q 258 740 250 746 q 264 723 269 736 q 217 641 261 715 l 81 413 l -94 118 l -262 -163 q -206 -127 -212 -131 l 29 21 q 235 152 108 67 q 434 312 351 233 q 453 313 444 322 q 457 304 457 308 q 453 294 457 300 q 252 135 375 223 q 45 -1 159 68 l -194 -152 l -293 -214 q -660 -723 -523 -575 q -839 -829 -767 -829 q -924 -761 -911 -828 m -898 -754 q -875 -795 -892 -784 q -844 -804 -861 -805 q -833 -803 -839 -804 q -786 -789 -807 -799 q -747 -766 -763 -779 q -712 -738 -716 -742 l -687 -714 l -678 -706 q -342 -245 -554 -573 q -667 -449 -532 -354 q -871 -648 -798 -546 q -902 -729 -902 -691 q -898 -754 -902 -742 m 296 869 q 276 917 276 889 q 296 965 276 944 q 343 984 316 984 q 390 965 372 984 q 410 917 410 942 q 390 869 410 887 q 343 850 368 850 q 296 869 318 850 "},"1":{"x_min":113.6875,"x_max":1122,"ha":786,"o":"m 116 8 q 1010 1245 467 530 q 842 1145 923 1184 q 535 1042 702 1080 q 185 999 333 998 q 171 1011 171 999 q 185 1024 171 1024 q 529 1067 336 1024 q 1102 1366 910 1153 l 1122 1350 l 1086 1302 l 991 1174 l 855 989 l 685 759 l 499 507 l 313 244 l 140 -7 q 120 -10 133 -16 q 116 8 109 -3 "}," ":{"x_min":0,"x_max":0,"ha":383}," ":{"x_min":0,"x_max":0,"ha":255},"<":{"x_min":126.484375,"x_max":985.59375,"ha":1155,"o":"m 127 552 q 141 560 129 560 q 717 715 419 531 q 963 904 858 798 q 981 904 972 912 q 981 886 989 895 l 970 874 q 956 861 968 872 q 935 844 944 851 q 885 803 917 828 q 814 750 848 773 q 731 694 759 711 q 463 571 592 611 q 192 533 323 529 q 334 434 264 488 q 468 298 423 366 q 540 132 533 212 q 527 118 540 118 q 515 128 515 118 q 318 415 504 269 q 231 479 283 444 q 160 523 199 501 l 134 537 q 127 552 124 541 "},"£":{"x_min":113.8125,"x_max":1782.09375,"ha":1746,"o":"m 114 14 q 140 85 118 54 q 218 141 169 126 q 322 143 266 157 q 422 112 384 127 q 527 66 484 87 q 557 52 541 58 q 784 340 658 154 q 837 427 822 399 l 547 454 q 536 467 536 457 q 550 479 537 481 l 851 451 q 941 600 911 544 l 630 629 q 619 642 619 629 q 633 654 620 655 l 956 624 l 1062 801 q 1149 944 1085 842 q 1253 1080 1204 1028 q 1429 1216 1340 1174 q 1641 1236 1532 1262 q 1769 1150 1739 1212 q 1782 1090 1781 1122 q 1778 1044 1782 1054 l 1771 1023 q 1754 1016 1764 1011 q 1746 1033 1743 1021 q 1752 1049 1748 1034 q 1757 1090 1757 1063 q 1745 1138 1757 1121 q 1632 1212 1717 1191 q 1270 1064 1449 1258 q 1212 992 1241 1032 q 1185 957 1202 980 q 1160 925 1167 934 q 1110 845 1156 919 q 1068 773 1081 799 l 1021 694 q 979 622 988 636 l 1265 596 q 1276 581 1277 596 q 1264 569 1276 569 l 1262 569 l 964 597 q 877 449 951 571 l 1182 421 q 1192 406 1192 421 q 1180 396 1192 396 l 1179 396 l 863 425 q 805 326 839 379 q 650 117 735 218 l 582 41 l 613 27 q 632 19 622 23 q 647 12 641 14 q 656 8 653 9 l 698 -10 q 750 -28 726 -22 q 800 -44 759 -31 q 854 -58 840 -57 q 875 -60 858 -58 q 904 -63 893 -62 q 954 -62 935 -66 q 998 -50 976 -58 q 1037 -28 1025 -40 q 1055 -30 1047 -19 q 1053 -47 1063 -38 q 965 -86 1016 -78 q 858 -83 914 -94 q 758 -57 790 -70 q 652 -13 704 -37 q 562 23 585 15 q 376 -107 483 -55 q 192 -113 272 -157 q 114 14 109 -69 m 139 12 q 202 -92 137 -58 q 368 -82 270 -127 q 539 33 466 -34 q 536 34 537 33 q 284 123 357 119 q 189 95 236 127 q 139 12 143 64 "},"t":{"x_min":-37.59375,"x_max":998.828125,"ha":920,"o":"m -34 288 q -37 295 -36 292 q -30 306 -37 300 l 191 489 l 406 666 l 491 736 q 188 752 351 736 q 176 766 176 755 q 188 778 175 778 q 212 776 202 778 q 508 759 364 764 q 909 1448 781 1280 q 952 1495 934 1481 q 970 1501 960 1501 q 984 1498 977 1501 q 995 1485 991 1492 q 998 1467 998 1477 q 979 1392 998 1440 q 690 924 901 1191 q 546 758 600 817 q 672 757 620 757 q 854 760 781 757 q 866 748 866 760 q 854 736 866 736 q 667 732 763 732 q 526 735 655 732 q 522 730 525 733 q 517 724 519 726 l 508 714 l 382 470 l 276 267 q 239 196 240 199 q 237 191 239 195 q 233 184 234 187 q 223 155 230 180 q 211 115 215 127 q 209 73 207 94 q 223 35 211 49 q 318 1 248 1 q 385 7 348 1 q 617 93 496 27 q 809 214 742 162 q 932 316 888 275 q 951 315 943 326 q 949 297 957 305 q 694 107 831 191 q 389 -16 532 9 q 318 -23 343 -23 q 203 22 235 -23 q 184 76 185 46 q 184 86 183 82 q 191 137 184 112 q 206 183 197 158 q 218 206 212 198 q 244 256 219 209 q 338 436 269 304 q 477 699 408 568 q 364 606 471 697 l 133 413 q -15 288 6 312 q -34 288 -27 276 m 563 816 q 668 941 622 884 q 965 1434 905 1238 q 973 1467 972 1456 q 971 1473 973 1471 q 968 1476 970 1476 q 962 1474 966 1476 q 926 1432 956 1468 q 563 816 822 1300 "},"W":{"x_min":-118.6875,"x_max":2112.65625,"ha":2165,"o":"m -118 -116 q -83 -54 -113 -80 q 4 -12 -48 -25 q 94 0 56 0 q 104 0 99 0 q 152 -2 120 0 q 202 -5 185 -4 q 340 287 247 115 q 527 591 437 469 q 840 965 706 836 q 927 1041 876 999 q 704 1100 819 1055 q 588 1146 674 1110 q 446 1198 491 1186 q 270 1222 355 1222 q 82 1158 132 1220 q 55 1078 55 1123 q 76 1009 55 1042 q 137 968 94 983 q 208 952 180 952 q 219 938 219 952 q 206 927 217 927 q 151 937 184 927 q 56 992 83 959 q 29 1077 29 1030 q 29 1084 29 1081 q 62 1176 31 1134 q 270 1247 124 1247 q 453 1222 363 1247 q 600 1169 519 1203 q 712 1123 693 1129 q 954 1064 826 1076 l 1005 1105 q 1064 1152 1050 1142 q 1118 1186 1094 1175 q 1183 1205 1152 1204 q 1199 1206 1192 1206 q 1270 1169 1251 1206 q 1279 1130 1279 1148 q 1233 1061 1279 1089 q 1047 1034 1182 1034 q 962 1039 1002 1034 q 857 947 893 980 q 547 577 722 819 q 362 278 453 444 q 227 -6 268 101 q 508 -25 427 -25 q 995 132 776 -25 q 1277 450 1161 248 q 1279 462 1277 459 q 1317 830 1287 536 q 1393 1087 1332 1001 q 1449 1122 1417 1122 q 1452 1122 1451 1122 q 1490 1061 1490 1119 l 1490 1045 q 1489 1039 1490 1043 q 1487 1033 1487 1034 l 1487 1026 q 1301 442 1435 680 q 1275 267 1292 358 q 1235 116 1258 179 q 1118 -103 1192 5 q 1176 -105 1163 -105 q 1366 -83 1279 -105 q 1593 22 1476 -56 q 1814 236 1712 104 q 2087 1122 2074 576 q 2100 1134 2087 1134 q 2112 1121 2112 1134 q 1833 221 2100 573 q 1606 1 1727 83 q 1373 -108 1485 -80 q 1176 -130 1280 -130 q 1102 -126 1130 -130 q 984 -236 1040 -210 q 915 -257 951 -252 q 903 -257 909 -257 q 852 -242 876 -257 q 823 -181 823 -224 q 855 -123 823 -143 q 935 -95 885 -105 q 995 -91 963 -91 q 1090 -99 1039 -91 l 1112 -66 q 1211 126 1167 18 q 1249 273 1235 181 q 1269 388 1251 281 q 1011 112 1163 220 q 508 -50 781 -50 q 219 -31 429 -48 q 134 -152 187 -109 q 18 -204 83 -192 q -10 -206 3 -206 q -90 -181 -55 -206 q -118 -125 -118 -158 q -118 -116 -118 -121 m -91 -118 q -92 -126 -92 -122 q -78 -161 -92 -144 q -8 -181 -46 -182 q 19 -179 5 -181 q 118 -134 76 -168 q 193 -30 159 -105 q 107 -25 146 -25 q -66 -73 -12 -25 q -91 -118 -87 -91 m 848 -185 q 864 -222 851 -212 q 900 -231 877 -231 q 940 -226 915 -231 q 975 -213 958 -222 q 1074 -122 1029 -186 q 999 -115 1034 -115 q 938 -120 967 -115 q 876 -140 902 -124 q 848 -185 848 -155 m 991 1061 q 1047 1058 1039 1058 q 1220 1083 1178 1058 q 1254 1131 1254 1102 q 1191 1180 1249 1180 q 1186 1180 1188 1180 q 1141 1167 1162 1176 q 1098 1143 1124 1161 l 1062 1118 q 1024 1087 1057 1114 q 991 1061 1008 1073 m 1309 511 q 1464 1040 1419 733 q 1465 1065 1465 1054 q 1451 1100 1465 1098 q 1448 1100 1450 1100 q 1423 1086 1435 1100 q 1393 1034 1411 1074 q 1341 828 1357 961 q 1309 511 1319 601 "},">":{"x_min":104.78125,"x_max":963.96875,"ha":1155,"o":"m 109 167 q 109 183 99 175 l 139 210 q 230 287 176 245 q 359 376 307 346 q 627 500 491 458 q 896 539 761 543 q 755 638 814 590 q 620 773 670 704 q 551 940 557 859 q 561 954 551 950 q 576 942 575 954 q 772 657 586 803 q 858 593 803 630 q 930 549 881 576 q 956 535 953 535 q 963 518 966 530 q 949 510 957 508 q 373 354 673 539 q 291 299 327 326 l 225 245 l 173 202 l 139 174 l 127 165 q 118 163 125 163 q 109 167 112 163 "},"v":{"x_min":-46.140625,"x_max":1247.5,"ha":1192,"o":"m -46 114 q -15 230 -46 164 q 112 468 34 340 q 204 676 204 620 q 191 705 204 697 q 173 712 186 709 q 155 712 163 714 q 137 706 144 709 q 119 695 130 703 l 102 683 l 88 669 q 82 662 85 666 q 76 655 78 657 q 70 648 74 652 q 66 643 67 644 q 61 636 62 639 l 58 632 q 41 629 52 622 q 37 645 31 635 l 39 649 q 43 654 41 651 q 47 659 46 658 q 58 671 50 663 q 64 679 59 673 q 72 687 69 684 q 76 692 73 688 q 83 699 80 697 q 88 703 86 702 q 165 739 129 738 q 207 726 187 739 q 229 677 229 710 q 193 563 229 636 q 115 419 172 515 q 7 219 51 313 q -20 113 -21 157 q -1 53 -20 76 q 88 13 31 13 q 123 15 105 13 q 548 264 347 50 q 759 578 686 409 q 704 710 704 628 q 724 776 701 751 q 772 797 742 797 q 783 796 777 797 q 823 762 811 792 q 829 728 828 747 q 790 586 829 673 q 872 553 823 564 q 921 548 896 548 q 1016 564 966 548 q 1140 619 1097 590 q 1225 685 1190 652 q 1243 685 1233 694 q 1247 675 1247 680 q 1242 667 1247 671 q 1089 562 1175 608 q 927 523 1003 522 q 867 529 896 523 q 780 562 815 540 q 567 244 701 391 q 379 89 481 154 q 127 -9 245 4 q 97 -12 112 -11 q 1 15 42 -12 q -46 114 -48 48 m 729 710 q 771 603 729 645 q 804 728 804 686 q 800 753 804 743 q 778 771 793 769 q 771 771 774 772 q 747 764 757 771 q 729 717 729 751 q 729 710 729 713 "},"&":{"x_min":153.671875,"x_max":1572.484375,"ha":1613,"o":"m 174 23 q 189 333 126 163 q 271 490 221 419 q 388 612 323 559 q 523 703 455 665 q 677 776 601 748 q 835 824 753 801 q 994 873 951 862 q 1001 875 996 875 q 1040 887 1009 876 q 1079 899 1073 897 l 1180 1054 q 1284 1186 1232 1133 q 1376 1257 1339 1240 q 1454 1276 1414 1273 q 1514 1266 1487 1277 q 1553 1235 1537 1255 q 1568 1146 1581 1199 q 1211 907 1540 1011 l 1096 872 q 846 428 931 607 q 748 -72 674 69 q 785 -118 762 -99 q 1047 62 925 -60 q 1092 112 1064 78 q 1130 157 1100 122 q 1163 200 1155 189 q 1177 222 1169 208 q 1187 238 1186 236 q 1196 253 1192 246 q 1205 267 1200 261 l 1216 287 l 1220 294 q 1237 299 1225 303 q 1242 283 1247 292 q 1066 44 1184 165 q 845 -119 961 -59 q 831 -126 839 -122 q 819 -131 823 -129 q 811 -135 814 -134 q 924 -161 859 -160 q 1227 -40 1089 -168 q 1286 20 1261 -10 q 1326 70 1321 65 l 1337 88 q 1356 92 1345 98 q 1360 76 1366 86 l 1354 67 q 1348 58 1353 66 q 1339 45 1343 49 q 1317 16 1328 30 q 1283 -21 1314 13 q 1243 -60 1271 -35 q 921 -186 1094 -195 q 780 -147 836 -183 q 534 -195 659 -195 q 308 -140 403 -195 q 174 23 215 -87 m 200 30 q 321 -117 235 -66 q 536 -169 410 -169 q 758 -129 655 -169 q 725 -83 735 -106 q 714 145 682 -1 q 823 442 742 269 q 1060 867 914 631 q 1035 854 1040 859 q 1009 846 1032 852 l 865 803 q 728 762 818 792 q 594 708 644 733 q 478 642 544 683 q 367 556 411 600 q 282 453 325 515 q 214 321 243 396 q 200 30 152 157 m 1116 910 q 1203 937 1183 930 q 1541 1152 1519 1035 q 1532 1218 1549 1189 q 1468 1251 1511 1247 q 1401 1239 1429 1255 q 1199 1041 1298 1191 q 1116 910 1143 957 "},"I":{"x_min":25,"x_max":1811.46875,"ha":1155,"o":"m 25 42 q 31 102 25 71 q 45 112 33 113 q 55 96 58 110 q 50 42 50 72 q 86 -49 52 -15 q 176 -89 119 -83 q 197 -89 187 -89 q 336 -53 271 -89 q 469 59 398 -15 l 518 113 q 563 169 544 144 l 617 241 q 669 310 634 262 l 731 393 l 791 475 l 931 661 q 1092 877 1033 804 q 1298 1099 1199 1014 q 1199 1130 1205 1127 q 1009 1162 1102 1162 q 761 1093 874 1162 q 665 1024 701 1060 q 642 1030 655 1021 q 642 1048 633 1039 q 739 1118 673 1080 q 1007 1187 865 1187 q 1207 1154 1104 1187 q 1322 1117 1302 1122 q 1401 1172 1363 1149 q 1648 1254 1519 1243 q 1675 1255 1662 1254 q 1811 1157 1811 1255 q 1761 1061 1810 1094 q 1653 1029 1715 1029 q 1645 1029 1649 1029 q 1471 1051 1579 1029 q 1327 1090 1403 1068 q 1208 976 1279 1051 q 1108 858 1172 937 q 1017 737 1047 780 l 913 597 l 811 461 q 559 124 600 172 q 348 -74 438 -22 q 193 -115 276 -115 q 172 -114 183 -115 q 66 -65 109 -108 q 25 42 25 -24 m 1351 1108 q 1476 1076 1411 1090 q 1647 1054 1570 1054 q 1743 1083 1703 1058 q 1785 1157 1781 1108 q 1679 1230 1781 1230 q 1652 1229 1666 1230 q 1414 1151 1532 1218 q 1351 1108 1389 1136 "},"G":{"x_min":33,"x_max":1643.09375,"ha":1340,"o":"m 33 -10 q 34 13 33 6 q 35 24 34 17 q 37 35 35 32 q 38 43 38 37 q 39 52 38 49 l 42 63 l 44 67 q 60 77 48 76 q 67 59 74 74 q 58 -11 58 25 q 123 -140 62 -101 q 276 -180 187 -180 q 448 -143 366 -180 q 572 -50 512 -112 l 605 -12 q 459 95 512 13 q 411 279 411 169 q 613 754 411 488 q 972 1104 767 955 q 966 1112 968 1108 q 961 1121 965 1117 q 929 1186 941 1154 q 914 1239 920 1209 l 909 1256 q 921 1272 907 1267 q 934 1261 933 1275 q 992 1118 948 1182 l 1055 1163 q 1365 1309 1224 1272 q 1485 1326 1435 1326 q 1586 1304 1544 1326 q 1636 1236 1623 1279 q 1643 1192 1642 1214 q 1638 1153 1643 1172 q 1604 1079 1628 1114 q 1532 1008 1581 1046 q 1308 939 1433 939 q 1057 1015 1162 940 q 985 1084 1017 1044 l 911 1029 q 529 584 660 817 q 436 279 436 415 q 480 109 437 174 q 622 7 528 35 q 726 177 665 69 q 848 356 783 279 q 998 490 923 448 q 1112 524 1055 522 q 1118 524 1114 524 q 1213 487 1171 524 q 1238 418 1238 455 q 1218 338 1238 375 q 942 32 1104 128 q 722 -30 831 -30 q 632 -19 676 -30 q 458 -165 552 -121 q 276 -206 373 -206 q 101 -156 170 -206 q 33 -10 33 -109 m 648 1 q 724 -4 687 -4 q 836 12 783 -4 q 930 53 906 39 q 1196 350 1086 143 q 1213 415 1212 386 q 1194 471 1213 447 q 1114 498 1160 498 q 1107 498 1111 498 q 1010 468 1060 497 q 914 390 956 436 q 748 165 833 309 q 648 1 681 48 m 1006 1099 q 1071 1037 1028 1069 q 1308 964 1173 964 q 1514 1026 1426 964 q 1603 1133 1573 1072 q 1618 1193 1617 1164 q 1601 1254 1618 1224 q 1485 1301 1575 1301 q 1369 1285 1429 1301 q 1006 1099 1198 1243 "},"`":{"x_min":32,"x_max":565.765625,"ha":595,"o":"m 32 1467 q 44 1480 32 1480 q 57 1467 57 1480 q 67 1402 57 1442 q 145 1279 94 1325 q 265 1208 201 1229 q 407 1179 331 1187 q 551 1181 485 1171 q 565 1169 561 1181 q 552 1156 565 1156 q 469 1152 511 1152 q 201 1212 320 1152 q 44 1396 82 1273 q 32 1467 32 1436 "},"r":{"x_min":3,"x_max":884.625,"ha":904,"o":"m 5 291 q 3 300 3 296 q 7 310 3 305 q 300 678 156 444 q 304 685 302 681 q 305 688 304 686 q 307 691 305 690 l 308 694 q 269 768 269 723 q 270 788 269 778 q 318 832 276 831 q 363 802 350 832 q 365 783 365 794 q 341 701 365 751 q 496 665 398 669 q 592 630 576 665 q 599 607 598 620 q 576 550 599 583 l 511 463 q 336 201 383 290 q 295 81 300 126 q 295 64 295 72 q 396 -20 295 -20 q 526 10 441 -20 q 865 175 689 66 q 881 172 876 182 q 884 165 883 168 q 877 154 884 159 q 534 -12 694 40 q 387 -45 440 -44 q 380 -45 384 -45 q 293 -7 322 -43 q 270 63 270 20 q 270 83 270 73 q 314 212 274 138 q 491 478 354 293 q 555 563 512 503 q 574 606 574 589 q 571 617 574 612 q 497 640 559 640 q 462 641 478 640 q 396 655 439 642 q 323 683 351 667 q 315 669 316 675 q 23 290 189 449 q 5 291 12 281 m 297 783 q 297 775 296 779 q 301 745 297 761 q 320 716 306 724 q 340 778 340 756 q 337 792 340 787 q 316 807 331 806 q 297 783 301 804 "},"‒":{"x_min":65.109375,"x_max":930.515625,"ha":993,"o":"m 78 421 q 65 433 65 421 q 78 446 65 446 l 918 446 q 930 433 930 446 q 918 421 930 421 l 78 421 "},"x":{"x_min":-141.75,"x_max":1055,"ha":1042,"o":"m -137 -47 q -95 -9 -120 -30 l 29 92 l 202 233 q 393 371 304 311 q 398 388 394 375 q 409 425 402 401 q 424 474 416 450 q 453 597 446 557 q 458 638 458 621 q 447 670 458 664 q 416 678 437 678 q 229 618 362 678 q -14 490 141 580 q -31 494 -25 484 q -27 512 -37 504 q 219 643 108 592 q 361 695 304 681 q 417 704 394 704 q 463 691 447 704 q 483 635 483 675 q 479 594 483 617 q 424 393 475 576 l 549 476 q 950 692 764 612 q 967 686 961 696 q 961 668 971 675 q 413 355 705 555 q 376 140 375 222 q 394 52 376 83 q 459 6 415 17 q 508 0 482 0 q 708 56 590 0 q 1033 281 854 126 q 1050 280 1042 288 q 1055 272 1055 276 q 1049 263 1055 267 q 717 33 873 108 q 508 -24 598 -24 q 454 -19 475 -24 q 372 39 399 -6 q 351 141 351 76 q 381 333 351 218 q 218 212 309 284 q 45 72 130 144 l -78 -27 q -119 -64 -113 -58 l -127 -67 q -137 -63 -132 -67 q -141 -55 -141 -59 q -137 -47 -141 -51 "},"h":{"x_min":-164.671875,"x_max":1102.53125,"ha":1075,"o":"m -164 5 q 84 472 -83 214 l 172 608 l 178 617 q 409 925 271 751 q 713 1273 567 1124 q 890 1436 843 1413 q 947 1451 920 1451 q 977 1446 962 1451 q 1027 1402 1010 1435 q 1035 1380 1031 1397 q 1038 1358 1038 1367 q 1036 1337 1038 1344 l 1032 1316 q 1023 1298 1030 1310 q 1019 1291 1022 1297 q 1016 1282 1017 1285 l 1010 1271 l 1006 1263 l 1004 1259 q 596 873 894 1108 q 206 593 424 741 q -88 119 19 323 q 42 297 18 266 q 245 524 149 430 q 465 693 366 642 q 480 699 466 694 q 522 716 506 709 q 579 731 539 722 q 654 739 623 739 q 683 737 670 739 q 784 695 742 730 q 835 591 835 654 q 801 473 835 538 q 739 373 766 404 q 690 320 711 341 q 595 212 638 269 q 517 68 517 114 q 519 55 517 61 q 552 35 527 39 q 575 34 564 34 q 770 97 657 34 q 1080 326 891 166 q 1098 325 1089 334 q 1102 315 1102 320 q 1097 307 1102 310 q 781 75 911 150 q 574 9 667 9 q 549 9 562 9 q 494 48 504 13 q 492 67 492 56 q 576 227 492 124 q 648 308 585 241 q 730 401 692 356 q 786 492 759 437 q 810 589 810 544 q 769 677 810 643 q 665 714 725 713 q 647 713 656 714 q 530 691 576 707 q 476 671 478 673 q 61 281 302 584 q -39 141 -16 176 l -117 33 q -142 -5 -142 -3 l -164 5 m 245 650 q 982 1274 809 1036 q 994 1293 985 1276 q 1010 1336 1000 1304 q 1013 1356 1013 1347 q 1003 1391 1013 1374 q 951 1425 989 1425 q 947 1425 949 1425 q 902 1413 929 1425 q 726 1248 861 1393 q 435 904 576 1085 q 245 650 354 805 "},".":{"x_min":107,"x_max":263.671875,"ha":308,"o":"m 107 64 q 130 119 107 96 q 184 143 153 143 q 239 119 216 143 q 263 64 263 96 q 239 10 263 33 q 184 -13 216 -13 q 130 10 153 -13 q 107 64 107 33 "},";":{"x_min":85.984375,"x_max":410.671875,"ha":459,"o":"m 87 -65 q 95 -50 82 -55 q 185 -3 152 -34 q 173 -5 182 -5 q 117 17 139 -5 q 95 72 95 39 q 117 127 95 106 q 173 151 141 151 q 230 127 206 151 q 252 72 252 105 q 245 40 252 53 q 101 -75 214 -42 l 97 -75 q 87 -65 88 -74 m 254 522 q 276 578 254 556 q 331 601 298 601 q 386 578 365 601 q 410 522 410 555 q 386 466 410 490 q 331 444 364 444 q 276 466 298 444 q 254 522 254 488 "},"f":{"x_min":-669,"x_max":1044.125,"ha":707,"o":"m -662 -766 q -669 -732 -669 -752 q -628 -584 -669 -680 q -569 -466 -593 -502 q -7 304 -466 -262 l 195 555 q 871 1362 656 1124 q 957 1406 914 1406 q 975 1405 966 1406 q 1032 1361 1015 1398 q 1044 1304 1044 1335 q 1043 1287 1044 1296 q 1032 1219 1039 1248 q 1022 1186 1025 1191 q 795 837 964 1016 q 309 444 614 645 q 16 287 211 379 l -102 141 q -3 77 -57 97 q 145 52 64 52 q 505 147 300 52 q 744 301 632 207 q 762 300 755 311 q 760 282 769 289 q 515 123 646 186 q 142 26 302 26 q -14 55 56 26 q -97 106 -65 74 q -94 32 -94 69 q -173 -333 -94 -149 q -409 -693 -263 -551 q -604 -799 -520 -799 q -662 -766 -649 -798 m -639 -756 q -618 -771 -632 -767 q -599 -773 -608 -773 q -428 -674 -531 -773 q -193 -317 -286 -540 q -120 27 -120 -142 q -124 113 -120 71 q -546 -479 -461 -316 q -605 -595 -584 -548 q -643 -728 -643 -683 q -639 -756 -643 -745 m 52 332 q 294 465 209 410 q 998 1194 877 850 q 1008 1222 1002 1198 q 1017 1284 1012 1240 q 1019 1302 1019 1293 q 1009 1352 1019 1328 q 969 1381 1000 1377 q 961 1381 965 1382 q 891 1344 926 1381 q 872 1321 886 1337 q 831 1274 858 1306 q 780 1215 805 1243 l 529 918 l 219 537 l 52 332 "}," ":{"x_min":0,"x_max":0,"ha":383},"“":{"x_min":70.84375,"x_max":407.5,"ha":435,"o":"m 72 796 l 262 1178 q 279 1183 267 1190 q 284 1166 290 1179 l 94 784 q 83 778 91 778 q 78 779 79 778 q 72 796 67 785 m 193 796 l 383 1178 q 400 1183 388 1190 q 405 1166 411 1179 l 215 784 q 204 778 212 778 q 198 779 200 778 q 193 796 188 786 "},"A":{"x_min":33,"x_max":2150.9375,"ha":1676,"o":"m 33 193 l 33 194 q 45 207 33 207 q 58 194 58 207 l 58 193 q 68 112 58 157 q 144 -4 94 29 q 263 -38 200 -38 q 315 -32 288 -38 q 474 54 404 -14 q 622 233 537 112 l 741 415 q 635 490 667 444 q 614 555 614 516 q 658 656 614 618 q 807 697 707 697 q 915 682 869 697 l 926 699 q 947 727 937 716 q 1349 1190 1180 1042 q 1795 1422 1573 1385 q 1905 1431 1841 1431 q 2144 1360 2045 1431 q 2150 1349 2150 1354 q 2148 1341 2150 1345 q 2130 1340 2141 1330 q 1933 1407 2047 1399 l 1905 1388 q 1831 1329 1880 1371 q 1607 1089 1709 1228 q 1314 425 1387 799 q 1440 468 1371 438 q 1517 507 1486 487 q 1542 524 1535 516 q 1560 523 1552 533 q 1558 505 1569 514 q 1533 486 1558 502 q 1445 441 1505 468 q 1309 399 1387 416 q 1280 58 1280 228 l 1280 0 l 1255 0 q 1234 197 1255 83 q 1183 376 1216 287 q 1050 371 1110 371 q 1013 372 1031 371 q 765 406 860 379 l 718 333 q 491 36 580 120 q 384 -35 442 -9 q 254 -63 322 -63 q 130 -24 183 -63 q 62 60 84 10 q 33 193 33 125 m 639 555 q 755 436 639 480 q 901 660 866 610 q 807 671 853 671 q 675 635 720 671 q 639 555 639 606 m 779 428 q 1014 397 877 401 q 1054 397 1034 397 q 1173 401 1114 397 q 1089 539 1140 479 q 925 652 1021 622 q 779 428 881 588 m 939 674 q 1107 555 1038 639 q 1198 404 1164 486 q 1288 417 1264 413 q 1587 1103 1359 799 q 1889 1405 1731 1293 q 1801 1397 1838 1404 q 1366 1169 1578 1357 q 967 712 1189 1014 q 939 674 942 679 m 1208 379 q 1228 321 1220 350 q 1259 196 1248 264 q 1282 392 1265 287 q 1208 379 1234 383 "},"6":{"x_min":96.40625,"x_max":1091.21875,"ha":966,"o":"m 127 13 q 133 366 62 136 q 309 743 189 560 q 689 1184 499 1039 q 942 1293 836 1297 q 1075 1232 1040 1293 q 1090 1174 1087 1210 q 1086 1111 1092 1141 q 1069 1051 1079 1078 q 1052 1009 1061 1026 l 1043 989 q 1025 983 1038 975 q 1020 1003 1013 989 l 1024 1011 q 1034 1033 1025 1013 l 1046 1064 q 1057 1103 1052 1084 q 1064 1144 1062 1133 q 1064 1185 1066 1172 q 1051 1220 1060 1206 q 940 1268 1026 1268 l 938 1268 q 844 1247 897 1268 q 706 1164 772 1216 q 331 729 523 1026 q 160 356 215 544 q 152 25 93 136 q 339 -70 201 -69 q 481 -47 411 -72 q 602 16 552 -22 q 701 113 644 49 q 779 214 748 166 q 833 311 808 260 q 898 520 887 418 q 873 681 908 617 q 718 767 827 760 q 438 666 564 773 q 343 555 375 611 q 323 549 337 542 q 318 569 312 556 l 321 574 q 330 588 324 580 q 365 632 341 604 q 419 686 390 661 q 544 764 478 738 q 719 794 623 799 q 897 695 844 786 q 927 519 937 621 q 857 299 916 416 q 801 201 830 249 q 723 96 773 156 q 622 0 674 39 q 497 -68 567 -41 q 348 -96 421 -96 l 339 -96 q 127 13 185 -95 "},"O":{"x_min":14,"x_max":1635.09375,"ha":1319,"o":"m 27 422 q 322 916 99 690 q 730 1201 507 1102 q 987 1258 864 1258 q 1040 1254 1022 1258 q 1048 1248 1043 1254 q 1161 1272 1106 1272 q 1298 1239 1240 1269 q 1393 1147 1359 1207 q 1431 1057 1418 1108 q 1435 1041 1434 1043 q 1596 972 1551 1025 q 1635 862 1635 924 q 1595 739 1635 792 q 1383 643 1535 658 q 1102 264 1289 437 q 747 29 941 117 q 398 -49 572 -49 q 366 -48 382 -49 q 71 97 157 -32 q 14 303 14 186 q 27 422 14 360 m 52 416 q 39 300 39 354 q 94 105 39 187 q 367 -23 176 -12 q 391 -23 379 -23 q 1084 282 754 -23 q 1355 642 1262 446 l 1342 642 q 1144 676 1247 642 q 986 766 1045 712 q 936 823 955 796 q 830 676 872 758 q 813 672 825 667 q 808 689 804 677 q 921 845 853 771 q 875 1008 875 922 q 1014 1232 881 1160 l 987 1232 q 971 1232 979 1232 l 741 1178 q 339 898 516 1074 q 52 416 122 680 m 900 1007 q 940 863 900 931 q 1111 980 1015 934 q 1410 1043 1255 1043 q 1372 1134 1393 1100 q 1283 1218 1341 1187 q 1161 1247 1227 1247 q 978 1177 1055 1246 q 900 1007 900 1111 m 952 841 q 1003 784 972 815 q 1153 700 1056 736 q 1342 667 1248 667 q 1366 668 1361 667 q 1425 913 1425 803 q 1415 1017 1425 970 q 1397 1017 1406 1017 q 1122 956 1251 1017 q 952 841 1026 910 m 1394 669 q 1496 694 1443 671 q 1573 754 1544 715 q 1610 862 1609 801 q 1578 956 1608 920 q 1440 1015 1530 1003 q 1450 913 1450 968 l 1450 912 q 1394 669 1443 796 "},"n":{"x_min":-240.578125,"x_max":1206.03125,"ha":1183,"o":"m -240 5 l -136 147 q -21 313 -75 229 q 165 667 164 590 q 162 682 165 676 q 167 698 158 693 q 185 693 179 702 q 190 670 190 683 q 142 532 190 625 q 19 325 89 435 l 80 387 q 402 632 249 553 q 680 709 550 709 q 763 701 722 709 q 859 632 840 684 q 865 604 865 615 q 862 575 865 594 q 855 546 861 565 q 844 518 851 533 q 837 505 841 514 q 830 493 833 497 q 822 480 827 489 q 816 470 817 472 l 805 453 q 796 440 800 445 l 791 436 l 777 416 l 737 362 q 687 294 718 338 q 603 93 603 164 q 605 71 603 82 q 643 30 611 42 q 680 24 659 24 q 965 155 776 24 q 1072 234 1022 194 q 1104 260 1086 245 q 1136 285 1123 275 q 1157 302 1148 295 q 1185 329 1185 326 q 1203 328 1195 339 q 1206 319 1206 323 q 1201 310 1206 314 q 980 135 1099 218 q 678 -1 781 -1 q 633 7 651 -1 q 580 65 592 24 q 578 92 578 78 q 666 308 578 170 l 717 376 l 759 431 l 774 451 l 797 482 q 829 548 807 494 q 840 598 840 575 q 835 624 840 611 q 758 676 823 664 q 677 684 718 684 q 96 371 419 684 q -115 132 -12 265 q -220 -9 -220 -2 l -240 5 "},"‘":{"x_min":70.84375,"x_max":286.78125,"ha":317,"o":"m 72 796 l 262 1178 q 279 1183 268 1190 q 284 1166 290 1179 l 94 784 q 83 778 91 778 q 78 779 79 778 q 72 796 67 785 "},"3":{"x_min":35.53125,"x_max":1284.46875,"ha":1155,"o":"m 35 151 q 62 265 37 206 q 180 404 94 347 q 197 412 182 406 q 237 423 214 419 q 288 419 262 428 q 356 350 333 403 q 359 255 377 297 q 323 206 349 232 q 284 176 299 184 q 263 166 273 169 q 245 175 254 162 q 254 193 239 187 q 334 265 315 218 q 331 339 348 297 q 280 393 313 381 q 194 380 239 405 l 173 367 q 128 322 159 357 q 87 254 100 290 q 83 38 38 135 q 208 -66 119 -37 q 585 -47 378 -126 q 948 272 816 44 q 1005 647 1060 469 q 951 752 987 704 l 936 752 q 724 781 809 737 q 682 818 699 795 q 672 862 669 838 q 743 909 680 906 q 897 859 830 916 q 948 802 928 833 q 964 782 960 789 q 1027 800 993 786 q 1206 940 1131 840 q 1256 1064 1248 1000 q 1238 1192 1264 1132 q 1078 1305 1192 1292 q 949 1293 1010 1311 q 864 1256 889 1274 q 822 1217 843 1239 q 804 1216 814 1208 q 803 1235 794 1225 q 905 1308 844 1281 q 1080 1330 990 1340 q 1194 1289 1145 1325 q 1262 1203 1240 1254 q 1281 1061 1292 1137 q 1227 923 1271 984 q 1034 773 1145 815 q 982 757 1021 768 q 1032 655 1012 710 q 1048 483 1058 567 q 972 258 1039 372 q 801 50 903 137 q 596 -72 712 -26 q 385 -117 492 -113 q 359 -119 380 -119 q 198 -92 267 -119 q 58 27 95 -56 q 35 151 33 79 m 700 856 q 736 806 693 828 q 930 778 808 768 l 926 782 l 925 783 l 925 786 l 920 792 q 913 800 919 794 q 904 812 908 807 q 879 838 894 827 q 761 882 828 882 l 746 882 q 700 856 704 878 "},"9":{"x_min":131.703125,"x_max":1152.796875,"ha":766,"o":"m 146 788 q 164 996 110 885 q 375 1216 221 1114 q 611 1312 483 1284 q 822 1326 708 1333 q 930 1313 880 1322 q 1008 1298 987 1303 q 1035 1288 1030 1291 q 1043 1270 1048 1284 q 1024 1262 1037 1256 q 820 1301 934 1295 q 390 1193 576 1317 q 189 984 243 1102 q 172 799 140 885 q 267 697 198 731 q 422 677 335 664 q 883 976 601 702 q 1008 1102 953 1043 q 1100 1206 1062 1161 q 1130 1245 1130 1242 l 1152 1227 l 195 -77 q 184 -83 191 -83 l 176 -80 q 173 -61 166 -75 l 965 1017 l 946 998 q 934 986 939 992 q 923 975 929 980 q 912 964 918 969 q 902 955 906 959 q 668 759 772 830 q 426 649 526 663 q 249 673 322 634 q 146 788 177 709 "},"l":{"x_min":-70,"x_max":959.09375,"ha":739,"o":"m -55 198 q 288 822 22 420 l 405 986 l 492 1108 q 523 1151 519 1146 q 541 1174 523 1154 l 594 1231 q 665 1297 629 1268 q 791 1382 737 1360 q 861 1399 829 1399 q 915 1383 891 1399 q 958 1308 954 1358 q 959 1297 959 1302 q 837 1033 959 1203 q 575 746 723 877 q 37 346 402 594 q -32 188 0 271 q -35 175 -33 184 q -38 162 -37 166 q -41 136 -40 153 q -40 111 -41 126 q -19 53 -37 74 q 82 13 17 13 q 176 29 124 13 q 469 145 343 79 q 735 321 596 213 q 754 320 746 327 q 752 301 762 310 q 476 119 607 190 q 181 1 347 49 q 79 -12 138 -12 q -38 34 0 -12 q -70 121 -70 69 q -55 198 -70 156 m 60 392 q 558 765 417 640 q 818 1048 709 899 q 934 1297 933 1206 q 933 1306 934 1301 q 901 1362 930 1344 q 860 1374 883 1374 q 682 1279 792 1374 q 638 1239 654 1254 l 601 1201 l 571 1169 q 550 1146 564 1162 l 543 1136 l 511 1091 l 424 969 l 310 808 q 60 392 152 567 "},"4":{"x_min":117,"x_max":1482,"ha":1140,"o":"m 117 567 q 1003 1008 472 660 l 1232 1171 l 1404 1293 q 1461 1339 1457 1334 l 1482 1320 l 889 562 q 899 557 894 559 q 912 554 910 554 q 1144 404 1089 507 q 1138 385 1150 392 q 1120 390 1126 377 q 905 528 1070 482 l 870 537 l 426 -29 q 414 -34 422 -34 l 406 -31 q 403 -11 396 -21 l 839 545 q 567 568 725 567 l 492 568 q 418 566 466 568 q 349 561 384 563 q 317 558 333 560 q 289 556 302 557 q 234 550 250 552 q 209 548 224 549 q 187 546 193 546 q 153 543 169 545 q 141 541 149 542 q 131 540 134 541 l 122 540 l 117 567 m 263 582 q 536 598 406 597 q 566 596 559 598 q 855 565 737 594 l 1389 1246 q 1017 984 1195 1100 q 579 724 801 841 q 263 582 413 635 "},"p":{"x_min":-691.21875,"x_max":1273.890625,"ha":1236,"o":"m -690 -713 q -592 -466 -682 -630 q -355 -93 -493 -284 q -7 322 -191 129 q 313 614 151 486 l 383 734 q 432 817 403 769 l 447 841 q 455 848 451 848 q 464 845 459 848 q 468 828 476 839 q 360 651 468 827 q 725 779 520 779 q 944 696 875 779 q 990 579 986 644 q 991 563 991 571 q 965 454 991 508 q 895 339 935 390 q 804 237 843 274 q 430 41 631 83 q 343 32 381 32 q 400 21 380 22 q 526 14 440 17 q 537 14 531 14 q 676 34 595 14 q 850 89 767 56 q 1041 192 942 126 q 1251 352 1157 268 q 1269 352 1261 360 q 1273 343 1273 348 q 1268 335 1273 337 q 779 34 1024 115 q 503 -10 645 -9 q 394 -2 448 -10 q 209 47 298 10 q 57 134 119 76 l -226 -324 q -494 -689 -401 -592 q -500 -694 -496 -690 q -509 -704 -504 -698 q -520 -715 -515 -710 q -577 -757 -540 -732 q -640 -781 -613 -781 q -691 -728 -691 -778 q -690 -713 -691 -721 m -665 -715 q -665 -726 -665 -722 q -638 -755 -665 -755 q -512 -672 -594 -755 q 68 197 -342 -496 l 276 552 q -335 -110 -49 283 q -568 -477 -475 -304 q -665 -715 -657 -647 m 69 156 q 215 69 120 104 q 319 57 264 57 q 420 66 367 57 q 787 257 620 106 q 875 348 847 311 q 939 455 910 394 q 966 563 965 508 q 965 572 966 567 q 925 681 963 629 q 725 754 868 755 q 626 746 675 754 q 548 727 576 738 q 479 697 513 715 q 426 666 435 671 q 415 659 424 665 q 397 646 407 654 q 376 630 387 638 l 322 588 l 86 183 q 69 156 82 177 "}," ":{"x_min":0,"x_max":0,"ha":84}}}
